<svg id="svg" version="1.1" xmlns="http://www.w3.org/2000/svg" xmlns:xlink="http://www.w3.org/1999/xlink" width="400" height="801.7977528089888" viewBox="0, 0, 400,801.7977528089888"><g id="svgg"><path id="path0" d="M56.200 0.263 C 49.508 1.058,41.365 2.771,40.826 3.496 C 40.702 3.663,39.340 4.226,37.800 4.746 C 34.701 5.792,27.855 9.501,26.213 11.023 C 25.633 11.561,24.977 12.000,24.756 12.000 C 24.534 12.000,24.462 12.177,24.597 12.394 C 24.731 12.611,23.704 14.006,22.315 15.494 C 17.415 20.744,14.531 24.875,18.834 20.481 C 29.199 9.896,42.870 3.984,59.645 2.832 C 67.069 2.322,333.781 2.303,340.406 2.812 C 357.278 4.107,371.807 10.395,381.224 20.476 C 382.007 21.314,382.794 22.000,382.972 22.000 C 383.430 22.000,380.709 18.651,377.888 15.740 C 376.576 14.387,375.624 13.085,375.772 12.845 C 375.940 12.573,375.808 12.499,375.421 12.647 C 375.079 12.778,374.800 12.678,374.800 12.424 C 374.800 11.103,367.060 6.387,362.200 4.746 C 360.660 4.226,359.287 3.645,359.149 3.456 C 358.769 2.934,351.541 1.279,346.687 0.602 C 342.722 0.049,60.767 -0.281,56.200 0.263 M60.592 6.833 C 28.182 8.798,9.431 27.842,7.612 60.640 C 7.066 70.493,7.063 730.791,7.610 740.400 C 9.550 774.545,27.812 792.887,61.800 794.828 C 72.567 795.443,338.650 795.110,343.200 794.476 C 373.310 790.279,389.530 771.874,391.208 740.000 C 391.715 730.367,391.712 72.635,391.205 62.600 C 389.432 27.514,371.350 8.777,337.360 6.804 C 329.237 6.332,68.400 6.360,60.592 6.833 M328.900 8.146 C 331.209 8.761,332.527 9.600,331.184 9.600 C 330.956 9.600,329.021 9.775,326.884 9.990 C 316.542 11.028,313.242 11.231,300.600 11.605 C 270.885 12.485,260.181 12.600,207.800 12.600 C 155.060 12.600,140.543 12.448,113.200 11.607 C 98.774 11.163,97.804 11.108,88.407 10.191 C 79.845 9.356,79.383 8.914,86.139 8.021 C 88.152 7.755,90.070 7.480,90.400 7.411 C 93.396 6.781,326.472 7.500,328.900 8.146 M376.422 13.100 C 376.434 13.265,377.019 13.838,377.722 14.374 L 379.000 15.349 377.825 14.074 C 376.603 12.749,376.385 12.597,376.422 13.100 M36.171 20.955 C 36.536 21.557,35.965 22.270,32.347 25.731 C 23.890 33.820,21.198 39.019,19.315 50.894 C 18.201 57.917,18.201 743.283,19.315 750.306 C 21.190 762.128,24.392 768.276,32.597 775.807 C 37.707 780.498,37.499 783.238,32.282 779.947 C 20.505 772.519,15.041 763.466,12.514 747.200 C 11.399 740.015,11.401 61.156,12.517 54.000 C 15.022 37.938,21.701 27.154,32.897 21.091 C 35.112 19.891,35.517 19.874,36.171 20.955 M367.120 21.900 C 378.298 28.701,384.036 38.204,386.672 54.279 C 387.558 59.685,388.068 729.980,387.194 741.400 C 385.697 760.979,380.425 771.293,367.468 779.993 C 361.701 783.865,361.035 780.785,366.612 776.036 C 375.842 768.177,379.427 759.538,380.405 742.800 C 381.077 731.297,380.734 57.036,380.054 52.251 C 378.368 40.397,375.479 34.528,367.496 26.741 C 363.551 22.893,362.766 21.936,362.987 21.241 C 363.368 20.041,364.312 20.192,367.120 21.900 M250.431 30.369 C 252.587 32.525,251.275 35.600,248.200 35.600 C 245.125 35.600,243.813 32.525,245.969 30.369 C 247.486 28.852,248.914 28.852,250.431 30.369 M388.800 40.200 C 388.800 40.530,388.980 40.800,389.200 40.800 C 389.420 40.800,389.600 40.530,389.600 40.200 C 389.600 39.870,389.420 39.600,389.200 39.600 C 388.980 39.600,388.800 39.870,388.800 40.200 M397.400 395.520 C 397.400 676.870,397.304 740.568,396.876 744.000 C 392.987 775.188,375.166 793.843,345.000 798.307 C 339.898 799.062,70.642 799.477,60.002 798.746 C 27.667 796.525,7.339 776.957,3.130 744.000 C 2.754 741.054,2.617 663.072,2.522 397.200 C 2.385 16.767,2.448 52.037,1.909 54.200 C 1.676 55.137,1.434 66.447,1.325 81.500 C 1.166 103.373,1.054 107.200,0.569 107.200 C 0.087 107.200,0.000 109.548,0.000 122.600 C 0.000 136.022,0.077 138.000,0.600 138.000 C 1.506 138.000,1.506 164.197,0.600 164.545 C -0.311 164.894,-0.311 223.200,0.600 223.200 C 1.111 223.200,1.200 224.246,1.200 230.213 C 1.200 236.077,1.102 237.263,0.600 237.455 C -0.310 237.805,-0.310 295.906,0.600 296.255 C 1.132 296.460,1.200 321.395,1.201 517.343 C 1.202 663.723,1.340 740.021,1.610 743.600 C 2.064 749.599,3.004 756.049,3.580 757.109 C 3.786 757.489,4.419 759.510,4.986 761.600 C 5.877 764.880,9.920 773.794,10.793 774.400 C 10.951 774.510,11.579 775.410,12.187 776.400 C 13.522 778.570,13.616 778.679,18.846 784.123 C 21.131 786.501,23.765 788.903,24.700 789.461 C 25.635 790.019,26.400 790.601,26.400 790.755 C 26.400 791.300,35.048 795.929,37.800 796.856 C 39.340 797.375,40.713 797.955,40.851 798.144 C 41.237 798.673,48.496 800.329,53.400 801.006 C 60.607 802.002,344.692 801.674,349.600 800.665 C 354.589 799.638,358.888 798.497,359.161 798.125 C 359.292 797.946,360.660 797.375,362.200 796.856 C 364.952 795.929,373.600 791.300,373.600 790.755 C 373.600 790.601,374.365 790.025,375.300 789.473 C 376.235 788.921,378.867 786.519,381.148 784.135 C 386.444 778.601,386.496 778.541,387.813 776.400 C 388.421 775.410,389.049 774.510,389.207 774.400 C 390.080 773.794,394.123 764.880,395.014 761.600 C 395.581 759.510,396.214 757.489,396.420 757.109 C 396.922 756.185,397.865 750.068,398.380 744.400 C 398.664 741.269,398.798 665.951,398.799 508.487 C 398.800 303.246,398.868 277.149,399.400 276.945 C 399.928 276.742,400.000 271.282,400.000 231.145 C 400.000 191.007,399.928 185.547,399.400 185.345 C 398.870 185.141,398.800 177.990,398.800 124.316 C 398.800 67.193,398.570 52.504,397.659 51.520 C 397.517 51.366,397.400 206.166,397.400 395.520 M392.187 75.308 C 391.189 79.287,392.699 83.178,394.622 81.582 C 395.518 80.838,395.423 75.657,394.500 74.957 C 393.428 74.143,392.442 74.293,392.187 75.308 M5.300 75.067 C 4.524 75.377,4.624 80.956,5.417 81.614 C 6.470 82.488,6.843 81.508,6.718 78.194 C 6.604 75.170,6.364 74.641,5.300 75.067 M392.243 720.233 C 391.876 721.188,391.964 726.523,392.356 727.143 C 392.736 727.742,394.384 727.419,394.894 726.646 C 395.535 725.673,395.234 720.714,394.500 720.157 C 393.547 719.434,392.536 719.468,392.243 720.233 M5.300 720.267 C 4.714 720.501,4.603 725.870,5.166 726.758 C 6.142 728.300,6.834 726.862,6.716 723.539 C 6.604 720.379,6.370 719.839,5.300 720.267 M388.800 761.400 C 388.800 761.730,388.980 762.000,389.200 762.000 C 389.420 762.000,389.600 761.730,389.600 761.400 C 389.600 761.070,389.420 760.800,389.200 760.800 C 388.980 760.800,388.800 761.070,388.800 761.400 M362.400 785.156 C 362.400 785.326,361.950 785.706,361.400 786.000 C 360.850 786.294,360.400 786.757,360.400 787.028 C 360.400 787.300,359.905 787.707,359.300 787.934 C 358.695 788.161,356.940 788.871,355.400 789.512 C 352.169 790.856,345.774 792.518,340.123 793.481 C 332.412 794.795,87.235 795.054,84.051 793.752 C 83.309 793.448,82.081 793.200,81.323 793.200 C 78.658 793.200,78.481 792.092,81.100 791.808 C 82.365 791.670,85.290 791.308,87.600 791.002 C 89.910 790.697,94.590 790.338,98.000 790.206 C 101.410 790.074,108.520 789.797,113.800 789.591 C 141.107 788.525,300.327 788.063,311.000 789.019 C 325.589 790.326,347.043 788.736,358.200 785.519 C 359.740 785.075,361.180 784.666,361.400 784.610 C 361.904 784.481,362.400 784.752,362.400 785.156 " stroke="none" fill="#141313" fill-rule="evenodd"></path><path id="path1" d="M247.090 30.854 C 246.710 31.066,246.400 31.501,246.400 31.820 C 246.400 32.139,246.220 32.400,246.000 32.400 C 245.348 32.400,245.544 33.425,246.331 34.138 C 247.691 35.368,250.800 34.418,250.800 32.773 C 250.800 32.528,250.459 32.454,250.000 32.600 C 249.379 32.797,249.200 32.672,249.200 32.041 C 249.200 31.000,248.017 30.335,247.090 30.854 M12.909 58.800 C 12.909 59.790,12.987 60.195,13.082 59.700 C 13.178 59.205,13.178 58.395,13.082 57.900 C 12.987 57.405,12.909 57.810,12.909 58.800 M12.599 400.600 C 12.599 585.840,12.644 661.680,12.700 569.133 C 12.756 476.586,12.756 325.026,12.700 232.333 C 12.644 139.640,12.599 215.360,12.599 400.600 M12.901 742.600 C 12.905 743.480,12.987 743.793,13.083 743.295 C 13.179 742.798,13.175 742.078,13.075 741.695 C 12.975 741.313,12.896 741.720,12.901 742.600 M376.275 771.000 C 374.996 772.430,374.125 773.600,374.338 773.600 C 374.668 773.600,376.320 771.753,378.360 769.100 C 379.532 767.576,378.479 768.535,376.275 771.000 M369.213 777.445 C 364.364 781.161,364.267 781.509,369.015 778.157 C 371.085 776.695,373.276 774.746,372.762 774.825 C 372.673 774.838,371.076 776.017,369.213 777.445 " stroke="none" fill="#636464" fill-rule="evenodd"></path><path id="path2" d="M31.163 22.494 C 20.902 29.279,15.292 38.893,12.894 53.800 C 12.091 58.792,11.605 731.716,12.397 741.541 C 13.623 756.746,17.053 765.858,24.270 773.082 C 28.402 777.218,34.175 781.125,35.439 780.640 C 36.444 780.255,36.041 779.698,33.501 777.965 C 25.590 772.564,20.265 764.361,17.813 753.797 C 17.122 750.816,17.109 750.735,16.316 744.600 C 15.539 738.577,15.555 63.517,16.333 56.800 C 18.286 39.938,24.226 28.894,34.913 22.256 C 35.525 21.876,35.919 21.393,35.789 21.182 C 35.297 20.387,33.638 20.857,31.163 22.494 M363.467 21.067 C 362.922 21.611,363.252 22.009,365.374 23.366 C 376.722 30.625,382.209 43.208,383.191 64.229 C 383.722 75.593,383.722 725.976,383.191 737.200 C 382.377 754.401,379.993 762.632,373.400 771.005 C 370.920 774.155,366.064 778.491,364.240 779.185 C 362.726 779.760,362.758 781.398,364.275 781.017 C 364.867 780.868,365.559 780.461,365.815 780.112 C 366.070 779.763,366.474 779.598,366.712 779.745 C 366.950 779.893,367.275 779.802,367.434 779.545 C 367.632 779.224,367.546 779.183,367.162 779.415 C 366.683 779.703,366.681 779.653,367.149 779.077 C 367.771 778.310,368.605 778.145,368.151 778.879 C 367.989 779.142,368.438 778.942,369.151 778.435 C 369.863 777.928,370.347 777.414,370.227 777.293 C 369.949 777.016,370.771 776.000,371.273 776.000 C 371.479 776.000,371.520 776.225,371.365 776.500 C 371.210 776.775,371.821 776.296,372.725 775.435 C 373.628 774.574,374.291 773.747,374.198 773.596 C 373.984 773.250,376.182 771.116,376.464 771.397 C 376.578 771.511,377.015 771.213,377.436 770.734 C 377.856 770.255,377.975 769.994,377.700 770.155 C 376.724 770.726,377.218 769.643,378.351 768.729 C 379.817 767.546,381.714 764.508,381.353 763.923 C 381.172 763.631,381.260 763.590,381.606 763.804 C 381.991 764.042,382.066 763.949,381.881 763.466 C 381.574 762.666,381.948 761.520,382.420 761.812 C 383.640 762.567,386.180 750.319,386.818 740.600 C 387.648 727.957,387.123 59.545,386.278 54.000 C 385.019 45.729,382.969 39.661,379.748 34.670 C 377.608 31.354,375.596 28.952,375.091 29.110 C 374.898 29.170,374.835 29.067,374.950 28.880 C 375.673 27.711,364.455 20.078,363.467 21.067 M248.500 30.832 C 248.885 31.056,249.200 31.591,249.200 32.020 C 249.200 32.449,249.380 32.800,249.600 32.800 C 249.820 32.800,250.000 32.660,250.000 32.489 C 250.000 31.902,248.754 30.400,248.277 30.412 C 248.015 30.419,248.115 30.608,248.500 30.832 M250.186 33.849 C 249.974 34.186,249.170 34.608,248.400 34.789 C 247.192 35.073,247.145 35.124,248.056 35.159 C 249.091 35.199,251.207 33.877,250.786 33.454 C 250.668 33.335,250.398 33.513,250.186 33.849 M13.082 59.700 C 12.987 60.195,12.909 59.790,12.909 58.800 C 12.909 57.810,12.987 57.405,13.082 57.900 C 13.178 58.395,13.178 59.205,13.082 59.700 M12.700 569.133 C 12.644 661.680,12.599 585.840,12.599 400.600 C 12.599 215.360,12.644 139.640,12.700 232.333 C 12.756 325.026,12.756 476.586,12.700 569.133 M13.083 743.295 C 12.987 743.793,12.905 743.480,12.901 742.600 C 12.896 741.720,12.975 741.313,13.075 741.695 C 13.175 742.078,13.179 742.798,13.083 743.295 " stroke="none" fill="#5b5b5b" fill-rule="evenodd"></path><path id="path3" d="M179.955 7.759 C 179.870 7.834,176.920 8.012,173.400 8.154 C 160.180 8.689,163.177 9.425,180.800 9.974 C 208.229 10.827,258.495 9.763,246.744 8.579 C 239.003 7.798,180.725 7.083,179.955 7.759 M15.600 21.000 C 14.919 21.990,14.180 22.800,13.957 22.800 C 13.735 22.800,13.664 22.980,13.800 23.200 C 13.936 23.420,13.888 23.600,13.693 23.600 C 13.311 23.600,9.520 29.398,9.612 29.841 C 9.643 29.989,9.511 30.221,9.318 30.355 C 8.729 30.767,6.127 36.467,5.464 38.800 C 4.392 42.570,2.748 60.400,3.473 60.400 C 3.676 60.400,4.062 58.195,4.331 55.500 C 5.674 42.078,7.870 34.745,13.133 26.107 C 17.107 19.584,18.364 16.983,15.600 21.000 M35.200 20.859 L 36.200 21.267 35.266 21.933 C 23.247 30.517,18.328 39.575,16.333 56.800 C 15.555 63.517,15.539 738.577,16.316 744.600 C 17.109 750.735,17.122 750.816,17.813 753.797 C 20.268 764.373,25.588 772.563,33.525 777.981 C 35.372 779.242,35.980 779.876,35.800 780.351 C 35.597 780.884,35.646 780.907,36.076 780.480 C 36.507 780.053,35.734 779.129,31.728 775.280 C 23.210 767.098,20.166 760.842,18.786 748.684 C 18.556 746.658,18.240 744.010,18.084 742.800 C 17.737 740.114,17.781 61.577,18.128 58.200 C 20.044 39.571,22.382 34.515,34.108 23.642 C 36.421 21.497,36.685 20.354,34.851 20.425 C 34.450 20.441,34.584 20.607,35.200 20.859 M383.603 20.479 C 383.601 20.633,384.655 22.433,385.944 24.479 C 392.229 34.456,394.348 41.618,395.805 57.800 C 396.642 67.102,396.851 67.428,396.573 59.000 C 396.111 44.992,394.637 36.503,392.033 32.846 C 391.575 32.203,391.200 31.475,391.200 31.228 C 391.200 30.532,387.196 24.389,385.303 22.180 C 384.369 21.091,383.604 20.326,383.603 20.479 M367.632 26.470 C 375.996 34.665,378.652 40.112,380.663 53.200 C 381.538 58.890,382.056 730.829,381.195 742.000 C 379.795 760.145,376.269 768.075,365.400 777.518 C 361.961 780.506,364.372 779.541,368.140 776.422 C 376.115 769.819,380.851 760.178,382.591 747.000 C 383.478 740.290,383.579 704.794,383.581 400.800 C 383.582 72.108,383.535 60.222,382.189 52.229 C 379.965 39.025,374.149 29.131,365.124 23.198 C 362.709 21.611,362.817 21.752,367.632 26.470 M24.187 28.100 L 21.800 30.600 24.300 28.213 C 26.622 25.995,26.983 25.600,26.687 25.600 C 26.626 25.600,25.501 26.725,24.187 28.100 M246.997 30.049 C 246.080 30.491,244.539 32.875,245.379 32.553 C 245.661 32.445,246.092 31.916,246.337 31.378 C 246.940 30.054,248.562 30.066,249.437 31.400 C 249.797 31.950,250.324 32.400,250.609 32.400 C 251.370 32.400,250.859 33.914,249.861 34.612 C 249.400 34.936,249.214 35.200,249.449 35.200 C 249.949 35.200,250.984 34.068,251.295 33.181 C 251.831 31.655,248.580 29.286,246.997 30.049 M245.200 33.552 C 245.200 33.942,246.755 35.398,246.923 35.164 C 246.987 35.074,246.626 34.601,246.120 34.114 C 245.614 33.627,245.200 33.374,245.200 33.552 M12.101 60.600 C 12.105 61.480,12.187 61.793,12.283 61.295 C 12.379 60.798,12.375 60.078,12.275 59.695 C 12.175 59.313,12.096 59.720,12.101 60.600 M386.914 61.800 C 386.917 62.900,386.995 63.303,387.087 62.695 C 387.179 62.086,387.177 61.186,387.082 60.695 C 386.987 60.203,386.911 60.700,386.914 61.800 M11.799 400.600 C 11.799 585.400,11.844 660.940,11.900 568.467 C 11.956 475.994,11.956 324.794,11.900 232.467 C 11.844 140.140,11.799 215.800,11.799 400.600 M387.399 401.000 C 387.399 583.820,387.444 658.550,387.500 567.067 C 387.556 475.584,387.556 326.004,387.500 234.667 C 387.444 143.330,387.399 218.180,387.399 401.000 M386.920 740.000 C 386.920 741.210,386.995 741.705,387.087 741.100 C 387.178 740.495,387.178 739.505,387.087 738.900 C 386.995 738.295,386.920 738.790,386.920 740.000 M12.109 740.800 C 12.109 741.790,12.187 742.195,12.282 741.700 C 12.378 741.205,12.378 740.395,12.282 739.900 C 12.187 739.405,12.109 739.810,12.109 740.800 M374.589 773.700 L 371.800 776.600 374.700 773.811 C 377.394 771.220,377.783 770.800,377.489 770.800 C 377.428 770.800,376.123 772.105,374.589 773.700 M190.000 790.025 C 177.130 790.185,163.630 790.507,160.000 790.741 C 156.370 790.975,151.060 791.275,148.200 791.408 C 145.340 791.540,142.010 791.858,140.800 792.114 L 138.600 792.579 140.200 792.887 C 141.080 793.056,142.610 793.270,143.600 793.361 C 144.590 793.452,147.299 793.726,149.621 793.969 C 155.947 794.631,298.852 794.320,301.545 793.638 C 302.345 793.435,304.440 793.133,306.200 792.966 C 311.825 792.434,307.612 791.920,288.564 790.813 C 281.194 790.385,231.053 789.565,219.200 789.679 C 216.010 789.710,202.870 789.865,190.000 790.025 " stroke="none" fill="#3c3c3c" fill-rule="evenodd"></path><path id="path4" d="M59.499 2.835 C 42.969 3.950,29.149 9.946,18.834 20.481 C 14.520 24.887,17.419 20.739,22.335 15.473 C 25.583 11.993,25.246 11.586,21.719 14.730 C 18.360 17.725,17.663 18.502,16.400 20.668 C 15.850 21.610,14.380 24.057,13.133 26.105 C 7.868 34.751,5.674 42.079,4.331 55.500 C 4.062 58.195,3.680 60.400,3.482 60.400 C 3.047 60.400,3.432 53.571,4.227 47.217 C 4.979 41.202,4.920 40.818,3.789 44.382 C 2.903 47.174,2.338 50.491,2.355 52.800 C 2.359 53.350,2.426 208.240,2.504 397.000 C 2.613 662.940,2.754 741.055,3.130 744.000 C 7.339 776.957,27.667 796.525,60.002 798.746 C 70.642 799.477,339.898 799.062,345.000 798.307 C 374.481 793.945,392.036 776.175,396.674 746.000 C 397.525 740.465,398.018 53.068,397.175 48.226 C 396.769 45.893,395.282 40.977,395.232 41.800 C 395.218 42.020,395.465 44.450,395.780 47.200 C 396.325 51.961,396.988 66.243,396.625 65.400 C 396.531 65.180,396.161 61.760,395.805 57.800 C 394.348 41.618,392.229 34.456,385.944 24.479 C 383.431 20.490,383.208 19.998,384.300 20.846 C 385.318 21.638,378.883 15.275,376.845 13.475 C 374.124 11.072,374.423 12.100,377.313 15.088 C 380.292 18.169,383.421 22.000,382.958 22.000 C 382.787 22.000,382.007 21.314,381.224 20.476 C 371.807 10.395,357.278 4.107,340.406 2.812 C 333.976 2.318,66.838 2.340,59.499 2.835 M337.360 6.804 C 371.350 8.777,389.432 27.514,391.205 62.600 C 391.712 72.635,391.715 730.367,391.208 740.000 C 389.530 771.874,373.310 790.279,343.200 794.476 C 338.650 795.110,72.567 795.443,61.800 794.828 C 27.812 792.887,9.550 774.545,7.610 740.400 C 7.063 730.791,7.066 70.493,7.612 60.640 C 9.431 27.842,28.182 8.798,60.592 6.833 C 68.400 6.360,329.237 6.332,337.360 6.804 M90.400 7.411 C 90.070 7.480,88.152 7.755,86.139 8.021 C 79.383 8.914,79.845 9.356,88.407 10.191 C 97.804 11.108,98.774 11.163,113.200 11.607 C 140.543 12.448,155.060 12.600,207.800 12.600 C 260.181 12.600,270.885 12.485,300.600 11.605 C 313.242 11.231,316.542 11.028,326.884 9.990 C 329.021 9.775,330.956 9.600,331.184 9.600 C 332.527 9.600,331.209 8.761,328.900 8.146 C 326.472 7.500,93.396 6.781,90.400 7.411 M237.000 7.999 C 249.305 8.620,251.180 8.913,245.930 9.395 C 233.424 10.541,179.741 10.525,167.600 9.371 C 163.189 8.952,165.461 8.475,173.400 8.154 C 176.920 8.012,179.870 7.834,179.955 7.759 C 180.333 7.428,229.806 7.636,237.000 7.999 M364.383 23.700 C 365.364 24.745,366.219 25.600,366.283 25.600 C 366.584 25.600,366.266 25.241,364.500 23.583 L 362.600 21.800 364.383 23.700 M33.381 24.500 L 31.800 26.200 33.500 24.619 C 34.435 23.749,35.200 22.984,35.200 22.919 C 35.200 22.616,34.852 22.919,33.381 24.500 M29.600 27.800 C 28.628 28.790,27.923 29.600,28.033 29.600 C 28.143 29.600,29.028 28.790,30.000 27.800 C 30.972 26.810,31.677 26.000,31.567 26.000 C 31.457 26.000,30.572 26.810,29.600 27.800 M369.200 28.200 C 370.395 29.410,371.463 30.400,371.573 30.400 C 371.683 30.400,370.795 29.410,369.600 28.200 C 368.405 26.990,367.337 26.000,367.227 26.000 C 367.117 26.000,368.005 26.990,369.200 28.200 M374.600 28.000 C 375.683 29.100,376.660 30.000,376.770 30.000 C 376.880 30.000,376.083 29.100,375.000 28.000 C 373.917 26.900,372.940 26.000,372.830 26.000 C 372.720 26.000,373.517 26.900,374.600 28.000 M24.175 27.700 L 23.000 29.000 24.300 27.825 C 25.015 27.179,25.600 26.594,25.600 26.525 C 25.600 26.216,25.270 26.488,24.175 27.700 M245.969 30.369 C 245.326 31.012,244.806 31.777,244.813 32.069 C 244.825 32.597,246.000 31.329,246.000 30.788 C 246.000 29.272,249.004 29.649,250.489 31.352 C 251.088 32.038,251.583 32.361,251.589 32.069 C 251.637 29.720,247.784 28.555,245.969 30.369 M26.951 30.900 C 25.770 32.248,25.080 33.200,25.284 33.200 C 25.384 33.200,26.045 32.480,26.752 31.600 C 28.125 29.892,28.264 29.401,26.951 30.900 M372.575 32.132 C 373.191 32.939,373.776 33.600,373.875 33.600 C 374.153 33.600,372.421 31.260,371.909 30.944 C 371.659 30.789,371.959 31.324,372.575 32.132 M22.981 36.837 C 22.629 37.518,22.412 38.145,22.499 38.232 C 22.586 38.319,22.956 37.762,23.322 36.995 C 24.144 35.270,23.859 35.138,22.981 36.837 M376.320 38.381 C 376.898 39.690,377.442 40.692,377.527 40.606 C 377.713 40.420,375.726 36.000,375.456 36.000 C 375.352 36.000,375.741 37.071,376.320 38.381 M389.600 40.200 C 389.600 40.530,389.420 40.800,389.200 40.800 C 388.980 40.800,388.800 40.530,388.800 40.200 C 388.800 39.870,388.980 39.600,389.200 39.600 C 389.420 39.600,389.600 39.870,389.600 40.200 M20.678 42.674 C 19.693 45.821,19.253 48.036,19.026 51.000 C 18.814 53.772,18.818 53.764,19.398 50.241 C 19.720 48.283,20.334 45.405,20.762 43.844 C 21.649 40.611,21.588 39.769,20.678 42.674 M377.798 41.800 C 378.438 43.776,379.620 49.297,380.069 52.400 C 380.738 57.025,381.072 730.990,380.412 742.600 C 380.174 746.780,379.643 751.820,379.232 753.800 C 378.821 755.780,378.373 757.940,378.236 758.600 C 378.051 759.495,378.147 759.394,378.613 758.200 C 379.532 755.848,380.685 748.613,381.195 742.000 C 382.056 730.829,381.538 58.890,380.663 53.200 C 379.896 48.205,378.572 42.574,377.937 41.607 C 377.626 41.131,377.596 41.173,377.798 41.800 M18.309 56.100 C 18.217 57.255,18.284 58.470,18.458 58.800 C 18.644 59.150,18.781 58.275,18.788 56.700 C 18.802 53.483,18.544 53.160,18.309 56.100 M12.093 58.000 C 12.093 58.770,12.175 59.085,12.276 58.700 C 12.376 58.315,12.376 57.685,12.276 57.300 C 12.175 56.915,12.093 57.230,12.093 58.000 M386.893 58.800 C 386.893 59.570,386.975 59.885,387.076 59.500 C 387.176 59.115,387.176 58.485,387.076 58.100 C 386.975 57.715,386.893 58.030,386.893 58.800 M17.891 60.800 C 17.559 61.874,17.728 740.663,18.061 742.500 C 18.170 743.105,18.291 744.350,18.330 745.267 C 18.369 746.183,18.445 746.858,18.500 746.767 C 18.555 746.675,18.510 592.070,18.400 403.200 C 18.290 214.330,18.061 60.250,17.891 60.800 M11.709 63.200 C 11.709 64.190,11.787 64.595,11.882 64.100 C 11.978 63.605,11.978 62.795,11.882 62.300 C 11.787 61.805,11.709 62.210,11.709 63.200 M387.337 65.800 C 387.339 67.560,387.409 68.230,387.493 67.289 C 387.578 66.349,387.577 64.909,387.491 64.089 C 387.405 63.270,387.336 64.040,387.337 65.800 M394.500 74.957 C 395.423 75.657,395.518 80.838,394.622 81.582 C 393.087 82.856,392.207 81.965,392.080 79.008 C 391.889 74.589,392.552 73.478,394.500 74.957 M6.718 78.194 C 6.843 81.508,6.470 82.488,5.417 81.614 C 4.624 80.956,4.524 75.377,5.300 75.067 C 6.364 74.641,6.604 75.170,6.718 78.194 M394.500 720.157 C 396.039 721.325,395.390 726.845,393.650 727.389 C 392.321 727.804,392.013 727.119,392.006 723.733 C 391.997 719.612,392.615 718.726,394.500 720.157 M6.716 723.539 C 6.834 726.862,6.142 728.300,5.166 726.758 C 4.603 725.870,4.714 720.501,5.300 720.267 C 6.370 719.839,6.604 720.379,6.716 723.539 M387.337 736.200 C 387.339 737.960,387.409 738.630,387.493 737.689 C 387.578 736.749,387.577 735.309,387.491 734.489 C 387.405 733.670,387.336 734.440,387.337 736.200 M11.709 738.000 C 11.709 738.990,11.787 739.395,11.882 738.900 C 11.978 738.405,11.978 737.595,11.882 737.100 C 11.787 736.605,11.709 737.010,11.709 738.000 M18.839 748.656 C 18.784 750.429,19.885 756.135,20.859 759.126 C 22.035 762.733,22.115 762.012,20.976 758.079 C 20.447 756.254,19.759 753.105,19.447 751.081 C 19.134 749.056,18.861 747.965,18.839 748.656 M377.067 761.667 C 376.705 762.588,376.474 763.407,376.554 763.488 C 376.634 763.568,377.000 762.883,377.367 761.967 C 377.733 761.050,377.964 760.231,377.879 760.146 C 377.794 760.061,377.429 760.745,377.067 761.667 M389.600 761.400 C 389.600 761.730,389.420 762.000,389.200 762.000 C 388.980 762.000,388.800 761.730,388.800 761.400 C 388.800 761.070,388.980 760.800,389.200 760.800 C 389.420 760.800,389.600 761.070,389.600 761.400 M22.000 762.147 C 22.000 762.595,23.875 766.124,24.579 767.000 C 24.932 767.440,24.556 766.540,23.742 765.000 C 22.122 761.935,22.000 761.734,22.000 762.147 M375.200 765.600 C 374.751 766.480,374.474 767.200,374.584 767.200 C 374.694 767.200,375.151 766.480,375.600 765.600 C 376.049 764.720,376.326 764.000,376.216 764.000 C 376.106 764.000,375.649 764.720,375.200 765.600 M26.394 769.633 C 27.079 770.642,28.661 772.442,29.909 773.633 L 32.177 775.800 29.787 773.200 C 28.473 771.770,26.891 769.970,26.273 769.200 C 25.298 767.986,25.314 768.043,26.394 769.633 M372.175 770.268 C 371.559 771.076,371.259 771.611,371.509 771.456 C 372.021 771.140,373.753 768.800,373.475 768.800 C 373.376 768.800,372.791 769.461,372.175 770.268 M24.000 773.400 C 25.195 774.610,26.263 775.600,26.373 775.600 C 26.483 775.600,25.595 774.610,24.400 773.400 C 23.205 772.190,22.137 771.200,22.027 771.200 C 21.917 771.200,22.805 772.190,24.000 773.400 M374.585 774.100 L 372.600 776.200 374.700 774.215 C 376.651 772.371,376.983 772.000,376.685 772.000 C 376.622 772.000,375.677 772.945,374.585 774.100 M366.175 776.500 L 365.000 777.800 366.300 776.625 C 367.015 775.979,367.600 775.394,367.600 775.325 C 367.600 775.016,367.270 775.288,366.175 776.500 M34.383 777.700 C 35.364 778.745,36.219 779.600,36.283 779.600 C 36.584 779.600,36.266 779.241,34.500 777.583 L 32.600 775.800 34.383 777.700 M365.800 780.631 C 364.920 781.157,364.380 781.589,364.600 781.592 C 365.081 781.598,367.600 780.098,367.600 779.806 C 367.600 779.544,367.683 779.507,365.800 780.631 M33.376 780.578 C 34.216 781.250,35.822 781.412,36.164 780.858 C 36.281 780.670,35.951 780.597,35.433 780.696 C 34.914 780.795,34.064 780.669,33.545 780.416 C 32.646 779.978,32.638 779.986,33.376 780.578 M361.400 784.610 C 361.180 784.666,359.740 785.075,358.200 785.519 C 347.043 788.736,325.589 790.326,311.000 789.019 C 300.327 788.063,141.107 788.525,113.800 789.591 C 108.520 789.797,101.410 790.074,98.000 790.206 C 94.590 790.338,89.910 790.697,87.600 791.002 C 85.290 791.308,82.365 791.670,81.100 791.808 C 78.481 792.092,78.658 793.200,81.323 793.200 C 82.081 793.200,83.349 793.470,84.138 793.800 C 85.380 794.319,90.064 794.392,118.687 794.340 C 149.937 794.283,152.038 794.201,143.600 793.372 C 142.610 793.275,141.080 793.054,140.200 792.882 L 138.600 792.569 141.000 792.089 C 142.320 791.825,147.450 791.423,152.400 791.196 C 157.350 790.970,161.940 790.698,162.600 790.593 C 169.084 789.559,270.017 789.736,288.570 790.814 C 307.429 791.909,311.765 792.428,306.400 792.946 C 304.750 793.106,302.539 793.428,301.487 793.661 C 300.434 793.895,299.232 793.997,298.815 793.888 C 298.397 793.779,297.458 793.839,296.728 794.022 C 293.970 794.711,335.874 794.176,340.123 793.467 C 345.698 792.537,352.137 790.870,355.400 789.512 C 356.940 788.871,358.695 788.161,359.300 787.934 C 359.905 787.707,360.400 787.300,360.400 787.028 C 360.400 786.757,360.850 786.294,361.400 786.000 C 361.950 785.706,362.400 785.326,362.400 785.156 C 362.400 784.752,361.904 784.481,361.400 784.610 M204.670 794.700 C 214.828 794.759,231.568 794.759,241.870 794.700 C 252.171 794.641,243.860 794.592,223.400 794.592 C 202.940 794.592,194.511 794.640,204.670 794.700 " stroke="none" fill="#2c292c" fill-rule="evenodd"></path></g></svg>