<svg width="375" height="812" viewBox="0 0 375 812" fill="none" xmlns="http://www.w3.org/2000/svg">
<g clip-path="url(#clip0_47_844)">
<rect width="375" height="812" rx="15" fill="white"/>
<g filter="url(#filter0_d_47_844)">
<rect y="748" width="375" height="64" fill="white"/>
</g>
<path d="M242.668 801L240.247 792.273H241.632L243.332 799.031H243.413L245.182 792.273H246.554L248.322 799.036H248.403L250.099 792.273H251.489L249.064 801H247.739L245.902 794.463H245.834L243.997 801H242.668ZM253.847 801.145C253.433 801.145 253.058 801.068 252.722 800.915C252.387 800.759 252.121 800.533 251.925 800.237C251.732 799.942 251.636 799.58 251.636 799.151C251.636 798.781 251.707 798.477 251.849 798.239C251.991 798 252.183 797.811 252.424 797.672C252.665 797.533 252.935 797.428 253.234 797.357C253.532 797.286 253.836 797.232 254.146 797.195C254.538 797.149 254.856 797.112 255.1 797.084C255.344 797.053 255.522 797.003 255.633 796.935C255.744 796.866 255.799 796.756 255.799 796.602V796.572C255.799 796.2 255.694 795.912 255.484 795.707C255.276 795.503 254.967 795.401 254.555 795.401C254.126 795.401 253.788 795.496 253.54 795.686C253.296 795.874 253.127 796.082 253.033 796.312L251.836 796.04C251.978 795.642 252.185 795.321 252.458 795.077C252.734 794.83 253.05 794.651 253.408 794.54C253.766 794.426 254.143 794.369 254.538 794.369C254.799 794.369 255.076 794.401 255.369 794.463C255.664 794.523 255.94 794.634 256.195 794.795C256.454 794.957 256.665 795.189 256.83 795.49C256.995 795.788 257.077 796.176 257.077 796.653V801H255.833V800.105H255.782C255.7 800.27 255.576 800.432 255.411 800.591C255.246 800.75 255.035 800.882 254.776 800.987C254.518 801.092 254.208 801.145 253.847 801.145ZM254.124 800.122C254.477 800.122 254.778 800.053 255.028 799.913C255.281 799.774 255.472 799.592 255.603 799.368C255.737 799.141 255.803 798.898 255.803 798.639V797.795C255.758 797.841 255.67 797.884 255.539 797.923C255.411 797.96 255.265 797.993 255.1 798.021C254.935 798.047 254.775 798.071 254.619 798.094C254.462 798.114 254.332 798.131 254.227 798.145C253.979 798.176 253.754 798.229 253.549 798.303C253.347 798.376 253.185 798.483 253.063 798.622C252.944 798.759 252.884 798.94 252.884 799.168C252.884 799.483 253.001 799.722 253.234 799.884C253.467 800.043 253.763 800.122 254.124 800.122ZM260.049 792.273V801H258.775V792.273H260.049ZM263.037 792.273V801H261.763V792.273H263.037ZM267.572 801.132C266.927 801.132 266.372 800.994 265.906 800.719C265.443 800.44 265.085 800.05 264.832 799.547C264.582 799.041 264.457 798.449 264.457 797.77C264.457 797.099 264.582 796.509 264.832 795.997C265.085 795.486 265.437 795.087 265.889 794.8C266.343 794.513 266.875 794.369 267.483 794.369C267.852 794.369 268.21 794.43 268.556 794.553C268.903 794.675 269.214 794.866 269.49 795.128C269.765 795.389 269.983 795.729 270.142 796.146C270.301 796.561 270.38 797.065 270.38 797.659V798.111H265.177V797.156H269.132C269.132 796.821 269.064 796.524 268.927 796.266C268.791 796.004 268.599 795.798 268.352 795.648C268.108 795.497 267.821 795.422 267.491 795.422C267.133 795.422 266.821 795.51 266.554 795.686C266.289 795.859 266.085 796.087 265.94 796.368C265.798 796.646 265.727 796.949 265.727 797.276V798.021C265.727 798.459 265.804 798.831 265.957 799.138C266.113 799.445 266.331 799.679 266.609 799.841C266.887 800 267.213 800.08 267.585 800.08C267.826 800.08 268.047 800.045 268.245 799.977C268.444 799.906 268.616 799.801 268.761 799.662C268.906 799.523 269.017 799.351 269.093 799.146L270.299 799.364C270.203 799.719 270.029 800.03 269.779 800.297C269.532 800.561 269.221 800.767 268.846 800.915C268.474 801.06 268.049 801.132 267.572 801.132ZM274.849 794.455V795.477H271.274V794.455H274.849ZM272.233 792.886H273.507V799.078C273.507 799.325 273.544 799.511 273.618 799.636C273.692 799.759 273.787 799.842 273.903 799.888C274.023 799.93 274.152 799.952 274.291 799.952C274.393 799.952 274.483 799.945 274.56 799.93C274.636 799.916 274.696 799.905 274.739 799.896L274.969 800.949C274.895 800.977 274.79 801.006 274.653 801.034C274.517 801.065 274.347 801.082 274.142 801.085C273.807 801.091 273.494 801.031 273.205 800.906C272.915 800.781 272.68 800.588 272.501 800.327C272.322 800.065 272.233 799.737 272.233 799.342V792.886Z" fill="#8C52FF"/>
<path d="M268.733 770.917H267.979V766.392C267.979 766.192 267.9 766 267.758 765.859C267.617 765.717 267.425 765.638 267.225 765.638H249.124C248.945 765.641 248.771 765.58 248.633 765.467C248.495 765.354 248.401 765.195 248.369 765.019V764.748C248.401 764.572 248.495 764.414 248.633 764.3C248.771 764.187 248.945 764.126 249.124 764.129H266.908C267.108 764.129 267.3 764.05 267.442 763.908C267.583 763.767 267.662 763.575 267.662 763.375C267.662 763.175 267.583 762.983 267.442 762.842C267.3 762.7 267.108 762.621 266.908 762.621H249.124C248.523 762.621 247.948 762.859 247.524 763.284C247.099 763.708 246.861 764.283 246.861 764.884C246.856 764.974 246.856 765.065 246.861 765.155V780.67C246.864 781.076 246.947 781.477 247.105 781.851C247.263 782.225 247.493 782.564 247.783 782.85C248.072 783.135 248.414 783.36 248.791 783.513C249.167 783.665 249.57 783.742 249.976 783.739H267.225C267.425 783.739 267.617 783.66 267.758 783.518C267.9 783.377 267.979 783.185 267.979 782.985V778.46H268.733C268.933 778.46 269.125 778.38 269.267 778.239C269.408 778.097 269.488 777.905 269.488 777.705V771.672C269.488 771.472 269.408 771.28 269.267 771.138C269.125 770.997 268.933 770.917 268.733 770.917ZM266.471 782.231H249.976C249.556 782.235 249.152 782.073 248.851 781.781C248.551 781.488 248.377 781.089 248.369 780.67V767.056C248.614 767.127 248.869 767.157 249.124 767.146H266.471V770.917H261.191C260.191 770.917 259.232 771.315 258.525 772.022C257.817 772.729 257.42 773.688 257.42 774.689C257.42 775.689 257.817 776.648 258.525 777.355C259.232 778.062 260.191 778.46 261.191 778.46H266.471V782.231ZM267.979 776.951H261.191C260.591 776.951 260.016 776.713 259.591 776.288C259.167 775.864 258.929 775.289 258.929 774.689C258.929 774.088 259.167 773.513 259.591 773.089C260.016 772.664 260.591 772.426 261.191 772.426H267.979V776.951Z" fill="#8C52FF"/>
<path d="M261.953 775.82C262.578 775.82 263.084 775.313 263.084 774.689C263.084 774.064 262.578 773.557 261.953 773.557C261.328 773.557 260.822 774.064 260.822 774.689C260.822 775.313 261.328 775.82 261.953 775.82Z" fill="#8C52FF"/>
<path d="M305.959 801V792.273H309.07C309.749 792.273 310.311 792.396 310.757 792.643C311.203 792.891 311.537 793.229 311.759 793.658C311.98 794.084 312.091 794.564 312.091 795.098C312.091 795.635 311.979 796.118 311.754 796.547C311.533 796.973 311.197 797.311 310.749 797.561C310.303 797.808 309.741 797.932 309.065 797.932H306.926V796.815H308.946C309.375 796.815 309.723 796.741 309.99 796.594C310.257 796.443 310.453 796.239 310.578 795.98C310.703 795.722 310.766 795.428 310.766 795.098C310.766 794.768 310.703 794.476 310.578 794.22C310.453 793.964 310.256 793.764 309.986 793.619C309.719 793.474 309.366 793.402 308.929 793.402H307.276V801H305.959ZM313.532 801V794.455H314.764V795.494H314.832C314.951 795.142 315.162 794.865 315.463 794.663C315.767 794.459 316.11 794.357 316.494 794.357C316.574 794.357 316.667 794.359 316.775 794.365C316.886 794.371 316.973 794.378 317.035 794.386V795.605C316.984 795.591 316.893 795.575 316.762 795.558C316.632 795.538 316.501 795.528 316.37 795.528C316.069 795.528 315.801 795.592 315.565 795.72C315.332 795.845 315.147 796.02 315.011 796.244C314.875 796.466 314.806 796.719 314.806 797.003V801H313.532ZM320.661 801.132C320.047 801.132 319.511 800.991 319.054 800.71C318.597 800.429 318.241 800.036 317.989 799.53C317.736 799.024 317.609 798.433 317.609 797.757C317.609 797.078 317.736 796.484 317.989 795.976C318.241 795.467 318.597 795.072 319.054 794.791C319.511 794.51 320.047 794.369 320.661 794.369C321.274 794.369 321.81 794.51 322.267 794.791C322.724 795.072 323.08 795.467 323.332 795.976C323.585 796.484 323.712 797.078 323.712 797.757C323.712 798.433 323.585 799.024 323.332 799.53C323.08 800.036 322.724 800.429 322.267 800.71C321.81 800.991 321.274 801.132 320.661 801.132ZM320.665 800.062C321.063 800.062 321.392 799.957 321.653 799.747C321.915 799.537 322.108 799.257 322.233 798.908C322.361 798.558 322.425 798.173 322.425 797.753C322.425 797.335 322.361 796.952 322.233 796.602C322.108 796.25 321.915 795.967 321.653 795.754C321.392 795.541 321.063 795.435 320.665 795.435C320.264 795.435 319.932 795.541 319.668 795.754C319.406 795.967 319.212 796.25 319.084 796.602C318.959 796.952 318.896 797.335 318.896 797.753C318.896 798.173 318.959 798.558 319.084 798.908C319.212 799.257 319.406 799.537 319.668 799.747C319.932 799.957 320.264 800.062 320.665 800.062ZM328.249 794.455V795.477H324.55V794.455H328.249ZM325.564 801V793.696C325.564 793.287 325.654 792.947 325.833 792.678C326.012 792.405 326.249 792.202 326.544 792.068C326.84 791.932 327.161 791.864 327.507 791.864C327.763 791.864 327.982 791.885 328.164 791.928C328.346 791.967 328.48 792.004 328.569 792.038L328.27 793.07C328.211 793.053 328.134 793.033 328.04 793.01C327.946 792.984 327.833 792.972 327.699 792.972C327.39 792.972 327.168 793.048 327.034 793.202C326.904 793.355 326.838 793.577 326.838 793.866V801H325.564ZM329.564 801V794.455H330.838V801H329.564ZM330.207 793.445C329.985 793.445 329.795 793.371 329.636 793.223C329.48 793.072 329.402 792.893 329.402 792.686C329.402 792.476 329.48 792.297 329.636 792.149C329.795 791.999 329.985 791.923 330.207 791.923C330.429 791.923 330.618 791.999 330.774 792.149C330.933 792.297 331.012 792.476 331.012 792.686C331.012 792.893 330.933 793.072 330.774 793.223C330.618 793.371 330.429 793.445 330.207 793.445ZM333.826 792.273V801H332.552V792.273H333.826ZM338.361 801.132C337.716 801.132 337.161 800.994 336.695 800.719C336.232 800.44 335.874 800.05 335.621 799.547C335.371 799.041 335.246 798.449 335.246 797.77C335.246 797.099 335.371 796.509 335.621 795.997C335.874 795.486 336.226 795.087 336.678 794.8C337.132 794.513 337.664 794.369 338.272 794.369C338.641 794.369 338.999 794.43 339.346 794.553C339.692 794.675 340.003 794.866 340.279 795.128C340.554 795.389 340.772 795.729 340.931 796.146C341.09 796.561 341.169 797.065 341.169 797.659V798.111H335.966V797.156H339.921C339.921 796.821 339.853 796.524 339.716 796.266C339.58 796.004 339.388 795.798 339.141 795.648C338.897 795.497 338.61 795.422 338.28 795.422C337.922 795.422 337.61 795.51 337.343 795.686C337.078 795.859 336.874 796.087 336.729 796.368C336.587 796.646 336.516 796.949 336.516 797.276V798.021C336.516 798.459 336.593 798.831 336.746 799.138C336.902 799.445 337.12 799.679 337.398 799.841C337.676 800 338.002 800.08 338.374 800.08C338.615 800.08 338.836 800.045 339.034 799.977C339.233 799.906 339.405 799.801 339.55 799.662C339.695 799.523 339.806 799.351 339.882 799.146L341.088 799.364C340.992 799.719 340.819 800.03 340.569 800.297C340.321 800.561 340.01 800.767 339.635 800.915C339.263 801.06 338.838 801.132 338.361 801.132Z" fill="#B4B4B4"/>
<circle cx="323.992" cy="765.789" r="3.97876" stroke="#B4B4B4" stroke-width="2"/>
<path d="M333.497 783.441V782.083C333.497 776.834 329.242 772.578 323.992 772.578V772.578C318.743 772.578 314.487 776.834 314.487 782.083V783.441" stroke="#B4B4B4" stroke-width="2"/>
<path d="M176.207 795.111H174.878C174.827 794.827 174.732 794.577 174.592 794.361C174.453 794.145 174.283 793.962 174.081 793.811C173.879 793.661 173.653 793.547 173.403 793.47C173.156 793.393 172.893 793.355 172.615 793.355C172.112 793.355 171.662 793.482 171.264 793.734C170.869 793.987 170.557 794.358 170.327 794.847C170.099 795.335 169.986 795.932 169.986 796.636C169.986 797.347 170.099 797.946 170.327 798.435C170.557 798.923 170.871 799.293 171.268 799.543C171.666 799.793 172.114 799.918 172.611 799.918C172.886 799.918 173.148 799.881 173.395 799.807C173.645 799.73 173.871 799.618 174.072 799.47C174.274 799.322 174.445 799.142 174.584 798.929C174.726 798.713 174.824 798.466 174.878 798.188L176.207 798.192C176.136 798.621 175.999 799.016 175.794 799.376C175.592 799.734 175.332 800.044 175.014 800.305C174.699 800.564 174.338 800.764 173.932 800.906C173.526 801.048 173.082 801.119 172.602 801.119C171.847 801.119 171.173 800.94 170.582 800.582C169.991 800.222 169.526 799.706 169.185 799.036C168.847 798.365 168.678 797.565 168.678 796.636C168.678 795.705 168.848 794.905 169.189 794.237C169.53 793.567 169.996 793.053 170.587 792.695C171.178 792.334 171.849 792.153 172.602 792.153C173.065 792.153 173.497 792.22 173.898 792.354C174.301 792.484 174.663 792.678 174.984 792.933C175.305 793.186 175.571 793.496 175.781 793.862C175.991 794.226 176.134 794.642 176.207 795.111ZM177.681 801V794.455H178.912V795.494H178.98C179.1 795.142 179.31 794.865 179.611 794.663C179.915 794.459 180.259 794.357 180.642 794.357C180.722 794.357 180.816 794.359 180.924 794.365C181.034 794.371 181.121 794.378 181.184 794.386V795.605C181.132 795.591 181.042 795.575 180.911 795.558C180.78 795.538 180.65 795.528 180.519 795.528C180.218 795.528 179.949 795.592 179.713 795.72C179.48 795.845 179.296 796.02 179.159 796.244C179.023 796.466 178.955 796.719 178.955 797.003V801H177.681ZM184.873 801.132C184.228 801.132 183.673 800.994 183.207 800.719C182.744 800.44 182.386 800.05 182.133 799.547C181.883 799.041 181.758 798.449 181.758 797.77C181.758 797.099 181.883 796.509 182.133 795.997C182.386 795.486 182.738 795.087 183.19 794.8C183.644 794.513 184.175 794.369 184.783 794.369C185.153 794.369 185.511 794.43 185.857 794.553C186.204 794.675 186.515 794.866 186.79 795.128C187.066 795.389 187.283 795.729 187.442 796.146C187.602 796.561 187.681 797.065 187.681 797.659V798.111H182.478V797.156H186.433C186.433 796.821 186.364 796.524 186.228 796.266C186.092 796.004 185.9 795.798 185.653 795.648C185.408 795.497 185.121 795.422 184.792 795.422C184.434 795.422 184.121 795.51 183.854 795.686C183.59 795.859 183.386 796.087 183.241 796.368C183.099 796.646 183.028 796.949 183.028 797.276V798.021C183.028 798.459 183.104 798.831 183.258 799.138C183.414 799.445 183.631 799.679 183.91 799.841C184.188 800 184.513 800.08 184.886 800.08C185.127 800.08 185.347 800.045 185.546 799.977C185.745 799.906 185.917 799.801 186.062 799.662C186.207 799.523 186.317 799.351 186.394 799.146L187.6 799.364C187.504 799.719 187.33 800.03 187.08 800.297C186.833 800.561 186.522 800.767 186.147 800.915C185.775 801.06 185.35 801.132 184.873 801.132ZM191 801.145C190.585 801.145 190.21 801.068 189.875 800.915C189.539 800.759 189.274 800.533 189.078 800.237C188.885 799.942 188.788 799.58 188.788 799.151C188.788 798.781 188.859 798.477 189.001 798.239C189.143 798 189.335 797.811 189.576 797.672C189.818 797.533 190.088 797.428 190.386 797.357C190.684 797.286 190.988 797.232 191.298 797.195C191.69 797.149 192.008 797.112 192.252 797.084C192.497 797.053 192.674 797.003 192.785 796.935C192.896 796.866 192.951 796.756 192.951 796.602V796.572C192.951 796.2 192.846 795.912 192.636 795.707C192.429 795.503 192.119 795.401 191.707 795.401C191.278 795.401 190.94 795.496 190.693 795.686C190.449 795.874 190.279 796.082 190.186 796.312L188.988 796.04C189.13 795.642 189.338 795.321 189.61 795.077C189.886 794.83 190.203 794.651 190.561 794.54C190.919 794.426 191.295 794.369 191.69 794.369C191.951 794.369 192.228 794.401 192.521 794.463C192.816 794.523 193.092 794.634 193.348 794.795C193.606 794.957 193.818 795.189 193.983 795.49C194.147 795.788 194.23 796.176 194.23 796.653V801H192.985V800.105H192.934C192.852 800.27 192.728 800.432 192.564 800.591C192.399 800.75 192.187 800.882 191.929 800.987C191.67 801.092 191.36 801.145 191 801.145ZM191.277 800.122C191.629 800.122 191.93 800.053 192.18 799.913C192.433 799.774 192.625 799.592 192.755 799.368C192.889 799.141 192.956 798.898 192.956 798.639V797.795C192.91 797.841 192.822 797.884 192.691 797.923C192.564 797.96 192.417 797.993 192.252 798.021C192.088 798.047 191.927 798.071 191.771 798.094C191.615 798.114 191.484 798.131 191.379 798.145C191.132 798.176 190.906 798.229 190.701 798.303C190.5 798.376 190.338 798.483 190.216 798.622C190.096 798.759 190.037 798.94 190.037 799.168C190.037 799.483 190.153 799.722 190.386 799.884C190.619 800.043 190.916 800.122 191.277 800.122ZM198.982 794.455V795.477H195.407V794.455H198.982ZM196.366 792.886H197.64V799.078C197.64 799.325 197.677 799.511 197.751 799.636C197.825 799.759 197.92 799.842 198.036 799.888C198.156 799.93 198.285 799.952 198.424 799.952C198.526 799.952 198.616 799.945 198.692 799.93C198.769 799.916 198.829 799.905 198.871 799.896L199.102 800.949C199.028 800.977 198.923 801.006 198.786 801.034C198.65 801.065 198.479 801.082 198.275 801.085C197.94 801.091 197.627 801.031 197.337 800.906C197.048 800.781 196.813 800.588 196.634 800.327C196.455 800.065 196.366 799.737 196.366 799.342V792.886ZM203.142 801.132C202.498 801.132 201.942 800.994 201.476 800.719C201.013 800.44 200.655 800.05 200.402 799.547C200.152 799.041 200.027 798.449 200.027 797.77C200.027 797.099 200.152 796.509 200.402 795.997C200.655 795.486 201.007 795.087 201.459 794.8C201.914 794.513 202.445 794.369 203.053 794.369C203.422 794.369 203.78 794.43 204.127 794.553C204.473 794.675 204.784 794.866 205.06 795.128C205.336 795.389 205.553 795.729 205.712 796.146C205.871 796.561 205.951 797.065 205.951 797.659V798.111H200.748V797.156H204.702C204.702 796.821 204.634 796.524 204.498 796.266C204.361 796.004 204.169 795.798 203.922 795.648C203.678 795.497 203.391 795.422 203.061 795.422C202.703 795.422 202.391 795.51 202.124 795.686C201.86 795.859 201.655 796.087 201.51 796.368C201.368 796.646 201.297 796.949 201.297 797.276V798.021C201.297 798.459 201.374 798.831 201.527 799.138C201.684 799.445 201.901 799.679 202.179 799.841C202.458 800 202.783 800.08 203.155 800.08C203.397 800.08 203.617 800.045 203.816 799.977C204.015 799.906 204.186 799.801 204.331 799.662C204.476 799.523 204.587 799.351 204.664 799.146L205.87 799.364C205.773 799.719 205.6 800.03 205.35 800.297C205.103 800.561 204.792 800.767 204.417 800.915C204.044 801.06 203.62 801.132 203.142 801.132Z" fill="#B4B4B4"/>
<circle cx="188" cy="775" r="11.125" stroke="#B4B4B4" stroke-width="1.75"/>
<path d="M187.158 779.726V771.289H188.59V779.726H187.158ZM183.655 776.223V774.791H192.092V776.223H183.655Z" fill="#B4B4B4"/>
<path d="M93.6676 801L91.2472 792.273H92.6321L94.3324 799.031H94.4134L96.1818 792.273H97.554L99.3224 799.036H99.4034L101.099 792.273H102.489L100.064 801H98.7386L96.902 794.463H96.8338L94.9972 801H93.6676ZM104.847 801.145C104.433 801.145 104.058 801.068 103.722 800.915C103.387 800.759 103.121 800.533 102.925 800.237C102.732 799.942 102.636 799.58 102.636 799.151C102.636 798.781 102.707 798.477 102.849 798.239C102.991 798 103.183 797.811 103.424 797.672C103.665 797.533 103.935 797.428 104.234 797.357C104.532 797.286 104.836 797.232 105.146 797.195C105.538 797.149 105.856 797.112 106.1 797.084C106.344 797.053 106.522 797.003 106.633 796.935C106.744 796.866 106.799 796.756 106.799 796.602V796.572C106.799 796.2 106.694 795.912 106.484 795.707C106.276 795.503 105.967 795.401 105.555 795.401C105.126 795.401 104.788 795.496 104.54 795.686C104.296 795.874 104.127 796.082 104.033 796.312L102.836 796.04C102.978 795.642 103.185 795.321 103.458 795.077C103.734 794.83 104.05 794.651 104.408 794.54C104.766 794.426 105.143 794.369 105.538 794.369C105.799 794.369 106.076 794.401 106.369 794.463C106.664 794.523 106.94 794.634 107.195 794.795C107.454 794.957 107.665 795.189 107.83 795.49C107.995 795.788 108.077 796.176 108.077 796.653V801H106.833V800.105H106.782C106.7 800.27 106.576 800.432 106.411 800.591C106.246 800.75 106.035 800.882 105.776 800.987C105.518 801.092 105.208 801.145 104.847 801.145ZM105.124 800.122C105.477 800.122 105.778 800.053 106.028 799.913C106.281 799.774 106.472 799.592 106.603 799.368C106.737 799.141 106.803 798.898 106.803 798.639V797.795C106.758 797.841 106.67 797.884 106.539 797.923C106.411 797.96 106.265 797.993 106.1 798.021C105.935 798.047 105.775 798.071 105.619 798.094C105.462 798.114 105.332 798.131 105.227 798.145C104.979 798.176 104.754 798.229 104.549 798.303C104.347 798.376 104.185 798.483 104.063 798.622C103.944 798.759 103.884 798.94 103.884 799.168C103.884 799.483 104.001 799.722 104.234 799.884C104.467 800.043 104.763 800.122 105.124 800.122ZM112.83 794.455V795.477H109.255V794.455H112.83ZM110.213 792.886H111.488V799.078C111.488 799.325 111.525 799.511 111.598 799.636C111.672 799.759 111.767 799.842 111.884 799.888C112.003 799.93 112.132 799.952 112.272 799.952C112.374 799.952 112.463 799.945 112.54 799.93C112.617 799.916 112.676 799.905 112.719 799.896L112.949 800.949C112.875 800.977 112.77 801.006 112.634 801.034C112.498 801.065 112.327 801.082 112.123 801.085C111.787 801.091 111.475 801.031 111.185 800.906C110.895 800.781 110.661 800.588 110.482 800.327C110.303 800.065 110.213 799.737 110.213 799.342V792.886ZM116.926 801.132C116.293 801.132 115.747 800.989 115.29 800.702C114.835 800.412 114.486 800.013 114.241 799.504C113.997 798.996 113.875 798.413 113.875 797.757C113.875 797.092 114 796.506 114.25 795.997C114.5 795.486 114.852 795.087 115.307 794.8C115.761 794.513 116.297 794.369 116.913 794.369C117.411 794.369 117.854 794.462 118.243 794.646C118.632 794.828 118.946 795.084 119.185 795.413C119.426 795.743 119.57 796.128 119.615 796.568H118.375C118.307 796.261 118.151 795.997 117.906 795.776C117.665 795.554 117.341 795.443 116.935 795.443C116.58 795.443 116.268 795.537 116.001 795.724C115.737 795.909 115.531 796.173 115.384 796.517C115.236 796.858 115.162 797.261 115.162 797.727C115.162 798.205 115.234 798.616 115.379 798.963C115.524 799.31 115.729 799.578 115.993 799.768C116.26 799.959 116.574 800.054 116.935 800.054C117.176 800.054 117.395 800.01 117.591 799.922C117.79 799.831 117.956 799.702 118.089 799.534C118.226 799.366 118.321 799.165 118.375 798.929H119.615C119.57 799.352 119.432 799.73 119.202 800.062C118.972 800.395 118.663 800.656 118.277 800.847C117.893 801.037 117.443 801.132 116.926 801.132ZM122.252 797.114V801H120.978V792.273H122.235V795.52H122.316C122.469 795.168 122.703 794.888 123.019 794.68C123.334 794.473 123.746 794.369 124.255 794.369C124.703 794.369 125.096 794.462 125.431 794.646C125.769 794.831 126.03 795.107 126.215 795.473C126.402 795.837 126.496 796.291 126.496 796.837V801H125.222V796.99C125.222 796.51 125.098 796.138 124.851 795.874C124.604 795.607 124.26 795.473 123.82 795.473C123.519 795.473 123.249 795.537 123.01 795.665C122.775 795.793 122.588 795.98 122.452 796.227C122.319 796.472 122.252 796.767 122.252 797.114ZM129.471 792.273V801H128.196V792.273H129.471ZM131.185 801V794.455H132.459V801H131.185ZM131.828 793.445C131.607 793.445 131.416 793.371 131.257 793.223C131.101 793.072 131.023 792.893 131.023 792.686C131.023 792.476 131.101 792.297 131.257 792.149C131.416 791.999 131.607 791.923 131.828 791.923C132.05 791.923 132.239 791.999 132.395 792.149C132.554 792.297 132.634 792.476 132.634 792.686C132.634 792.893 132.554 793.072 132.395 793.223C132.239 793.371 132.05 793.445 131.828 793.445ZM139.078 796.053L137.923 796.257C137.875 796.109 137.798 795.969 137.693 795.835C137.591 795.702 137.451 795.592 137.275 795.507C137.099 795.422 136.879 795.379 136.615 795.379C136.254 795.379 135.953 795.46 135.711 795.622C135.47 795.781 135.349 795.987 135.349 796.24C135.349 796.459 135.43 796.635 135.592 796.768C135.754 796.902 136.015 797.011 136.376 797.097L137.416 797.335C138.018 797.474 138.467 797.689 138.762 797.979C139.058 798.268 139.206 798.645 139.206 799.108C139.206 799.5 139.092 799.849 138.865 800.156C138.64 800.46 138.326 800.699 137.923 800.872C137.522 801.045 137.058 801.132 136.529 801.132C135.797 801.132 135.199 800.976 134.735 800.663C134.272 800.348 133.988 799.901 133.883 799.321L135.115 799.134C135.191 799.455 135.349 799.697 135.588 799.862C135.826 800.024 136.137 800.105 136.521 800.105C136.939 800.105 137.272 800.018 137.522 799.845C137.772 799.669 137.897 799.455 137.897 799.202C137.897 798.997 137.821 798.825 137.667 798.686C137.517 798.547 137.285 798.442 136.973 798.371L135.865 798.128C135.254 797.989 134.802 797.767 134.51 797.463C134.22 797.159 134.075 796.774 134.075 796.308C134.075 795.922 134.183 795.584 134.399 795.294C134.615 795.004 134.913 794.778 135.294 794.616C135.674 794.452 136.11 794.369 136.602 794.369C137.309 794.369 137.866 794.523 138.272 794.83C138.679 795.134 138.947 795.541 139.078 796.053ZM143.662 794.455V795.477H140.087V794.455H143.662ZM141.045 792.886H142.32V799.078C142.32 799.325 142.357 799.511 142.43 799.636C142.504 799.759 142.599 799.842 142.716 799.888C142.835 799.93 142.964 799.952 143.104 799.952C143.206 799.952 143.295 799.945 143.372 799.93C143.449 799.916 143.509 799.905 143.551 799.896L143.781 800.949C143.707 800.977 143.602 801.006 143.466 801.034C143.33 801.065 143.159 801.082 142.955 801.085C142.619 801.091 142.307 801.031 142.017 800.906C141.727 800.781 141.493 800.588 141.314 800.327C141.135 800.065 141.045 799.737 141.045 799.342V792.886Z" fill="#B4B4B4"/>
<path d="M127.522 772.41C128.012 773.051 128.012 773.917 127.522 774.558C125.977 776.574 122.271 780.725 117.945 780.725C113.618 780.725 109.913 776.574 108.368 774.558C108.13 774.25 108 773.873 108 773.484C108 773.095 108.13 772.717 108.368 772.41C109.913 770.393 113.618 766.242 117.945 766.242C122.271 766.242 125.977 770.393 127.522 772.41V772.41Z" stroke="#B4B4B4" stroke-width="2" stroke-linecap="round" stroke-linejoin="round"/>
<path d="M117.945 776.587C119.659 776.587 121.049 775.198 121.049 773.484C121.049 771.77 119.659 770.38 117.945 770.38C116.231 770.38 114.841 771.77 114.841 773.484C114.841 775.198 116.231 776.587 117.945 776.587Z" stroke="#B4B4B4" stroke-width="2" stroke-linecap="round" stroke-linejoin="round"/>
<path d="M32.9588 801V792.273H34.2756V796.065H38.6264V792.273H39.9474V801H38.6264V797.195H34.2756V801H32.9588ZM44.5199 801.132C43.9063 801.132 43.3707 800.991 42.9134 800.71C42.456 800.429 42.1009 800.036 41.848 799.53C41.5952 799.024 41.4688 798.433 41.4688 797.757C41.4688 797.078 41.5952 796.484 41.848 795.976C42.1009 795.467 42.456 795.072 42.9134 794.791C43.3707 794.51 43.9063 794.369 44.5199 794.369C45.1335 794.369 45.669 794.51 46.1264 794.791C46.5838 795.072 46.9389 795.467 47.1918 795.976C47.4446 796.484 47.571 797.078 47.571 797.757C47.571 798.433 47.4446 799.024 47.1918 799.53C46.9389 800.036 46.5838 800.429 46.1264 800.71C45.669 800.991 45.1335 801.132 44.5199 801.132ZM44.5241 800.062C44.9219 800.062 45.2514 799.957 45.5128 799.747C45.7741 799.537 45.9673 799.257 46.0923 798.908C46.2202 798.558 46.2841 798.173 46.2841 797.753C46.2841 797.335 46.2202 796.952 46.0923 796.602C45.9673 796.25 45.7741 795.967 45.5128 795.754C45.2514 795.541 44.9219 795.435 44.5241 795.435C44.1236 795.435 43.7912 795.541 43.527 795.754C43.2656 795.967 43.071 796.25 42.9432 796.602C42.8182 796.952 42.7557 797.335 42.7557 797.753C42.7557 798.173 42.8182 798.558 42.9432 798.908C43.071 799.257 43.2656 799.537 43.527 799.747C43.7912 799.957 44.1236 800.062 44.5241 800.062ZM48.9933 801V794.455H50.2163V795.52H50.2972C50.4336 795.159 50.6566 794.878 50.9663 794.676C51.2759 794.472 51.6467 794.369 52.0785 794.369C52.516 794.369 52.8825 794.472 53.1779 794.676C53.4762 794.881 53.6964 795.162 53.8384 795.52H53.9066C54.0629 795.17 54.3114 794.892 54.6523 794.685C54.9933 794.474 55.3995 794.369 55.8711 794.369C56.4648 794.369 56.9492 794.555 57.3242 794.928C57.7021 795.3 57.891 795.861 57.891 796.611V801H56.6168V796.73C56.6168 796.287 56.4961 795.966 56.2546 795.767C56.0131 795.568 55.7248 795.469 55.3896 795.469C54.9748 795.469 54.6523 795.597 54.4222 795.852C54.1921 796.105 54.0771 796.43 54.0771 796.828V801H52.8072V796.649C52.8072 796.294 52.6964 796.009 52.4748 795.793C52.2532 795.577 51.9648 795.469 51.6097 795.469C51.3683 795.469 51.1452 795.533 50.9407 795.661C50.739 795.786 50.5756 795.96 50.4506 796.185C50.3285 796.409 50.2674 796.669 50.2674 796.964V801H48.9933ZM62.4197 801.132C61.7749 801.132 61.2195 800.994 60.7536 800.719C60.2905 800.44 59.9325 800.05 59.6797 799.547C59.4297 799.041 59.3047 798.449 59.3047 797.77C59.3047 797.099 59.4297 796.509 59.6797 795.997C59.9325 795.486 60.2848 795.087 60.7365 794.8C61.1911 794.513 61.7223 794.369 62.3303 794.369C62.6996 794.369 63.0575 794.43 63.4041 794.553C63.7507 794.675 64.0618 794.866 64.3374 795.128C64.6129 795.389 64.8303 795.729 64.9893 796.146C65.1484 796.561 65.228 797.065 65.228 797.659V798.111H60.0249V797.156H63.9794C63.9794 796.821 63.9112 796.524 63.7749 796.266C63.6385 796.004 63.4467 795.798 63.1996 795.648C62.9553 795.497 62.6683 795.422 62.3388 795.422C61.9808 795.422 61.6683 795.51 61.4013 795.686C61.1371 795.859 60.9325 796.087 60.7876 796.368C60.6456 796.646 60.5746 796.949 60.5746 797.276V798.021C60.5746 798.459 60.6513 798.831 60.8047 799.138C60.9609 799.445 61.1783 799.679 61.4567 799.841C61.7351 800 62.0604 800.08 62.4325 800.08C62.674 800.08 62.8942 800.045 63.093 799.977C63.2919 799.906 63.4638 799.801 63.6087 799.662C63.7536 799.523 63.8643 799.351 63.9411 799.146L65.147 799.364C65.0504 799.719 64.8771 800.03 64.6271 800.297C64.38 800.561 64.0689 800.767 63.6939 800.915C63.3217 801.06 62.897 801.132 62.4197 801.132Z" fill="#B4B4B4"/>
<path d="M47.0955 765.589C47.513 765.21 48.0545 765 48.6158 765C49.177 765 49.7185 765.21 50.136 765.589L58.4763 773.169C58.7135 773.385 58.9031 773.648 59.033 773.943C59.1628 774.238 59.2299 774.556 59.23 774.879V785.699C59.23 786.31 58.9904 786.895 58.5638 787.326C58.1372 787.758 57.5586 788 56.9554 788H53.1643C52.561 788 51.9824 787.758 51.5559 787.326C51.1293 786.895 50.8896 786.31 50.8896 785.699V780.331C50.8896 780.128 50.8098 779.933 50.6676 779.789C50.5254 779.645 50.3325 779.565 50.1314 779.565H47.0986C46.8975 779.565 46.7046 779.645 46.5624 779.789C46.4202 779.933 46.3404 780.128 46.3404 780.331V785.699C46.3404 786.31 46.1007 786.895 45.6741 787.326C45.2476 787.758 44.669 788 44.0657 788H40.2746C39.6714 788 39.0928 787.758 38.6662 787.326C38.2396 786.895 38 786.31 38 785.699V774.879C38 774.227 38.273 773.606 38.7552 773.169L47.0955 765.589ZM49.1215 766.73C48.9823 766.604 48.802 766.534 48.615 766.534C48.428 766.534 48.2477 766.604 48.1085 766.73L39.7682 774.31C39.6891 774.382 39.6259 774.469 39.5825 774.567C39.5392 774.665 39.5167 774.772 39.5164 774.879V785.699C39.5164 785.903 39.5963 786.098 39.7385 786.242C39.8807 786.385 40.0736 786.466 40.2746 786.466H44.0657C44.2668 786.466 44.4597 786.385 44.6019 786.242C44.744 786.098 44.8239 785.903 44.8239 785.699V780.331C44.8239 779.721 45.0636 779.136 45.4902 778.705C45.9167 778.273 46.4953 778.031 47.0986 778.031H50.1314C50.7347 778.031 51.3133 778.273 51.7398 778.705C52.1664 779.136 52.4061 779.721 52.4061 780.331V785.699C52.4061 785.903 52.486 786.098 52.6281 786.242C52.7703 786.385 52.9632 786.466 53.1643 786.466H56.9554C57.1564 786.466 57.3493 786.385 57.4915 786.242C57.6337 786.098 57.7136 785.903 57.7136 785.699V774.879C57.7133 774.772 57.6908 774.665 57.6475 774.567C57.6041 774.469 57.5409 774.382 57.4618 774.31L49.1215 766.73Z" fill="#B4B4B4"/>
<path d="M35.7216 70.5455H39.5909L44.7727 83.1932H44.9773L50.1591 70.5455H54.0284V88H50.9943V76.0085H50.8324L46.0085 87.9489H43.7415L38.9176 75.983H38.7557V88H35.7216V70.5455ZM59.2528 92.9091C58.8324 92.9091 58.4432 92.875 58.0852 92.8068C57.733 92.7443 57.4517 92.6705 57.2415 92.5852L57.9574 90.1818C58.4063 90.3125 58.8068 90.375 59.1591 90.3693C59.5114 90.3636 59.821 90.2528 60.0881 90.0369C60.3608 89.8267 60.5909 89.4744 60.7784 88.9801L61.0426 88.2727L56.2955 74.9091H59.5682L62.5852 84.7955H62.7216L65.7472 74.9091H69.0284L63.7869 89.5852C63.5426 90.2784 63.2188 90.8722 62.8153 91.3665C62.4119 91.8665 61.9176 92.2472 61.3324 92.5085C60.7528 92.7756 60.0597 92.9091 59.2528 92.9091Z" fill="#2A2A2A"/>
<path d="M80.9261 88L76 70.5455H79.4006L82.5455 83.3722H82.7074L86.0653 70.5455H89.1591L92.5256 83.3807H92.679L95.8239 70.5455H99.2244L94.2983 88H91.179L87.6847 75.7528H87.5483L84.0455 88H80.9261ZM103.712 88.2642C102.882 88.2642 102.135 88.1165 101.47 87.821C100.811 87.5199 100.288 87.0767 99.902 86.4915C99.5213 85.9062 99.331 85.1847 99.331 84.3267C99.331 83.5881 99.4673 82.9773 99.7401 82.4943C100.013 82.0114 100.385 81.625 100.857 81.3352C101.328 81.0455 101.859 80.8267 102.45 80.679C103.047 80.5256 103.663 80.4148 104.3 80.3466C105.067 80.267 105.689 80.196 106.166 80.1335C106.643 80.0653 106.99 79.9631 107.206 79.8267C107.428 79.6847 107.538 79.4659 107.538 79.1705V79.1193C107.538 78.4773 107.348 77.9801 106.967 77.6278C106.587 77.2756 106.038 77.0994 105.322 77.0994C104.567 77.0994 103.967 77.2642 103.524 77.5938C103.087 77.9233 102.791 78.3125 102.638 78.7614L99.7571 78.3523C99.9844 77.5568 100.359 76.892 100.882 76.358C101.405 75.8182 102.044 75.4148 102.8 75.1477C103.555 74.875 104.391 74.7386 105.305 74.7386C105.936 74.7386 106.564 74.8125 107.189 74.9602C107.814 75.108 108.385 75.3523 108.902 75.6932C109.419 76.0284 109.834 76.4858 110.146 77.0653C110.464 77.6449 110.624 78.3693 110.624 79.2386V88H107.658V86.2017H107.555C107.368 86.5653 107.104 86.9062 106.763 87.2244C106.428 87.5369 106.004 87.7898 105.493 87.983C104.987 88.1705 104.393 88.2642 103.712 88.2642ZM104.513 85.9972C105.132 85.9972 105.669 85.875 106.124 85.6307C106.578 85.3807 106.928 85.0511 107.172 84.642C107.422 84.233 107.547 83.7869 107.547 83.304V81.7614C107.45 81.8409 107.286 81.9148 107.053 81.983C106.825 82.0511 106.57 82.1108 106.286 82.1619C106.001 82.2131 105.72 82.2585 105.442 82.2983C105.163 82.3381 104.922 82.3722 104.717 82.4006C104.257 82.4631 103.845 82.5653 103.482 82.7074C103.118 82.8494 102.831 83.0483 102.621 83.304C102.411 83.554 102.305 83.8778 102.305 84.2756C102.305 84.8438 102.513 85.2727 102.928 85.5625C103.342 85.8523 103.871 85.9972 104.513 85.9972ZM116.811 70.5455V88H113.726V70.5455H116.811ZM123.069 70.5455V88H119.984V70.5455H123.069ZM132.037 88.2557C130.724 88.2557 129.591 87.983 128.636 87.4375C127.688 86.8864 126.957 86.108 126.446 85.1023C125.935 84.0909 125.679 82.9006 125.679 81.5312C125.679 80.1847 125.935 79.0028 126.446 77.9858C126.963 76.9631 127.685 76.1676 128.611 75.5994C129.537 75.0256 130.625 74.7386 131.875 74.7386C132.682 74.7386 133.443 74.8693 134.159 75.1307C134.881 75.3864 135.517 75.7841 136.068 76.3239C136.625 76.8636 137.063 77.5511 137.381 78.3864C137.699 79.2159 137.858 80.2045 137.858 81.3523V82.2983H127.128V80.2188H134.901C134.895 79.6278 134.767 79.1023 134.517 78.642C134.267 78.1761 133.918 77.8097 133.469 77.5426C133.026 77.2756 132.509 77.142 131.918 77.142C131.287 77.142 130.733 77.2955 130.256 77.6023C129.778 77.9034 129.406 78.3011 129.139 78.7955C128.878 79.2841 128.744 79.821 128.739 80.4062V82.2216C128.739 82.983 128.878 83.6364 129.156 84.1818C129.435 84.7216 129.824 85.1364 130.324 85.4261C130.824 85.7102 131.409 85.8523 132.08 85.8523C132.528 85.8523 132.935 85.7898 133.298 85.6648C133.662 85.5341 133.977 85.3438 134.244 85.0938C134.511 84.8438 134.713 84.5341 134.849 84.1648L137.73 84.4886C137.548 85.25 137.202 85.9148 136.69 86.483C136.185 87.0455 135.537 87.483 134.747 87.7955C133.957 88.1023 133.054 88.2557 132.037 88.2557ZM147.005 74.9091V77.2955H139.479V74.9091H147.005ZM141.337 71.7727H144.423V84.0625C144.423 84.4773 144.485 84.7955 144.61 85.017C144.741 85.233 144.911 85.3807 145.121 85.4602C145.332 85.5398 145.565 85.5795 145.82 85.5795C146.013 85.5795 146.19 85.5653 146.349 85.5369C146.513 85.5085 146.638 85.483 146.724 85.4602L147.244 87.8722C147.079 87.929 146.843 87.9915 146.536 88.0597C146.235 88.1278 145.866 88.1676 145.428 88.179C144.656 88.2017 143.96 88.0852 143.34 87.8295C142.721 87.5682 142.229 87.1648 141.866 86.6193C141.508 86.0739 141.332 85.392 141.337 84.5739V71.7727Z" fill="#8C52FF"/>
<rect x="33" y="119" width="309" height="120" rx="10" fill="#F4F4F4"/>
<path d="M60.5455 143.182C60.5455 144.436 60.3106 145.509 59.8409 146.403C59.375 147.294 58.7386 147.975 57.9318 148.449C57.1288 148.922 56.2178 149.159 55.1989 149.159C54.1799 149.159 53.267 148.922 52.4602 148.449C51.6572 147.972 51.0208 147.288 50.5511 146.398C50.0852 145.504 49.8523 144.432 49.8523 143.182C49.8523 141.928 50.0852 140.856 50.5511 139.966C51.0208 139.072 51.6572 138.388 52.4602 137.915C53.267 137.441 54.1799 137.205 55.1989 137.205C56.2178 137.205 57.1288 137.441 57.9318 137.915C58.7386 138.388 59.375 139.072 59.8409 139.966C60.3106 140.856 60.5455 141.928 60.5455 143.182ZM58.4261 143.182C58.4261 142.299 58.2879 141.555 58.0114 140.949C57.7386 140.339 57.3598 139.879 56.875 139.568C56.3902 139.254 55.8314 139.097 55.1989 139.097C54.5663 139.097 54.0076 139.254 53.5227 139.568C53.0379 139.879 52.6572 140.339 52.3807 140.949C52.108 141.555 51.9716 142.299 51.9716 143.182C51.9716 144.064 52.108 144.811 52.3807 145.42C52.6572 146.027 53.0379 146.487 53.5227 146.801C54.0076 147.112 54.5663 147.267 55.1989 147.267C55.8314 147.267 56.3902 147.112 56.875 146.801C57.3598 146.487 57.7386 146.027 58.0114 145.42C58.2879 144.811 58.4261 144.064 58.4261 143.182ZM70.2429 140.273L67.1349 149H64.8622L61.7543 140.273H63.9474L65.9531 146.756H66.044L68.0554 140.273H70.2429ZM75.233 149.17C74.358 149.17 73.6023 148.989 72.9659 148.625C72.3333 148.258 71.8466 147.739 71.5057 147.068C71.1648 146.394 70.9943 145.6 70.9943 144.688C70.9943 143.79 71.1648 143.002 71.5057 142.324C71.8504 141.642 72.3314 141.112 72.9489 140.733C73.5663 140.35 74.2917 140.159 75.125 140.159C75.6629 140.159 76.1705 140.246 76.6477 140.42C77.1288 140.591 77.553 140.856 77.9205 141.216C78.2917 141.576 78.5833 142.034 78.7955 142.591C79.0076 143.144 79.1136 143.803 79.1136 144.568V145.199H71.9602V143.812H77.142C77.1383 143.419 77.053 143.068 76.8864 142.761C76.7197 142.451 76.4867 142.206 76.1875 142.028C75.892 141.85 75.5473 141.761 75.1534 141.761C74.733 141.761 74.3636 141.864 74.0455 142.068C73.7273 142.269 73.4792 142.534 73.3011 142.864C73.1269 143.189 73.0379 143.547 73.0341 143.938V145.148C73.0341 145.655 73.1269 146.091 73.3125 146.455C73.4981 146.814 73.7576 147.091 74.0909 147.284C74.4242 147.473 74.8144 147.568 75.2614 147.568C75.5606 147.568 75.8314 147.527 76.0739 147.443C76.3163 147.356 76.5265 147.229 76.7045 147.062C76.8826 146.896 77.017 146.689 77.108 146.443L79.0284 146.659C78.9072 147.167 78.6761 147.61 78.3352 147.989C77.9981 148.364 77.5663 148.655 77.0398 148.864C76.5133 149.068 75.911 149.17 75.233 149.17ZM80.8537 149V140.273H82.848V141.727H82.9389C83.098 141.223 83.3707 140.835 83.7571 140.562C84.1473 140.286 84.5923 140.148 85.0923 140.148C85.206 140.148 85.3329 140.153 85.473 140.165C85.617 140.172 85.7363 140.186 85.831 140.205V142.097C85.7438 142.066 85.6056 142.04 85.4162 142.017C85.2306 141.991 85.0507 141.977 84.8764 141.977C84.5014 141.977 84.1643 142.059 83.8651 142.222C83.5696 142.381 83.3366 142.602 83.1662 142.886C82.9957 143.17 82.9105 143.498 82.9105 143.869V149H80.8537ZM95.2585 140.273L92.1506 149H89.8778L86.7699 140.273H88.9631L90.9688 146.756H91.0597L93.071 140.273H95.2585ZM96.6818 149V140.273H98.7386V149H96.6818ZM97.7159 139.034C97.3902 139.034 97.1098 138.926 96.875 138.71C96.6402 138.491 96.5227 138.227 96.5227 137.92C96.5227 137.61 96.6402 137.347 96.875 137.131C97.1098 136.911 97.3902 136.801 97.7159 136.801C98.0455 136.801 98.3258 136.911 98.5568 137.131C98.7917 137.347 98.9091 137.61 98.9091 137.92C98.9091 138.227 98.7917 138.491 98.5568 138.71C98.3258 138.926 98.0455 139.034 97.7159 139.034ZM104.717 149.17C103.842 149.17 103.087 148.989 102.45 148.625C101.818 148.258 101.331 147.739 100.99 147.068C100.649 146.394 100.479 145.6 100.479 144.688C100.479 143.79 100.649 143.002 100.99 142.324C101.335 141.642 101.816 141.112 102.433 140.733C103.051 140.35 103.776 140.159 104.609 140.159C105.147 140.159 105.655 140.246 106.132 140.42C106.613 140.591 107.037 140.856 107.405 141.216C107.776 141.576 108.068 142.034 108.28 142.591C108.492 143.144 108.598 143.803 108.598 144.568V145.199H101.445V143.812H106.626C106.623 143.419 106.537 143.068 106.371 142.761C106.204 142.451 105.971 142.206 105.672 142.028C105.376 141.85 105.032 141.761 104.638 141.761C104.217 141.761 103.848 141.864 103.53 142.068C103.212 142.269 102.964 142.534 102.786 142.864C102.611 143.189 102.522 143.547 102.518 143.938V145.148C102.518 145.655 102.611 146.091 102.797 146.455C102.982 146.814 103.242 147.091 103.575 147.284C103.909 147.473 104.299 147.568 104.746 147.568C105.045 147.568 105.316 147.527 105.558 147.443C105.801 147.356 106.011 147.229 106.189 147.062C106.367 146.896 106.501 146.689 106.592 146.443L108.513 146.659C108.392 147.167 108.161 147.61 107.82 147.989C107.482 148.364 107.051 148.655 106.524 148.864C105.998 149.068 105.395 149.17 104.717 149.17ZM112.092 149L109.626 140.273H111.723L113.257 146.409H113.337L114.905 140.273H116.979L118.547 146.375H118.632L120.143 140.273H122.246L119.774 149H117.632L115.996 143.102H115.876L114.24 149H112.092Z" fill="#8C52FF"/>
<path d="M37.2557 267.364V279H35.1477V267.364H37.2557ZM41.5043 273.886V279H39.4474V270.273H41.4134V271.756H41.5156C41.7164 271.267 42.0365 270.879 42.4759 270.591C42.919 270.303 43.4664 270.159 44.1179 270.159C44.7202 270.159 45.2448 270.288 45.6918 270.545C46.1425 270.803 46.491 271.176 46.7372 271.665C46.9872 272.153 47.1103 272.746 47.1065 273.443V279H45.0497V273.761C45.0497 273.178 44.8982 272.722 44.5952 272.392C44.2959 272.062 43.8812 271.898 43.3509 271.898C42.991 271.898 42.6709 271.977 42.3906 272.136C42.1141 272.292 41.8963 272.517 41.7372 272.812C41.5819 273.108 41.5043 273.466 41.5043 273.886ZM56.6804 270.273L53.5724 279H51.2997L48.1918 270.273H50.3849L52.3906 276.756H52.4815L54.4929 270.273H56.6804ZM61.6705 279.17C60.7955 279.17 60.0398 278.989 59.4034 278.625C58.7708 278.258 58.2841 277.739 57.9432 277.068C57.6023 276.394 57.4318 275.6 57.4318 274.688C57.4318 273.79 57.6023 273.002 57.9432 272.324C58.2879 271.642 58.7689 271.112 59.3864 270.733C60.0038 270.35 60.7292 270.159 61.5625 270.159C62.1004 270.159 62.608 270.246 63.0852 270.42C63.5663 270.591 63.9905 270.856 64.358 271.216C64.7292 271.576 65.0208 272.034 65.233 272.591C65.4451 273.144 65.5511 273.803 65.5511 274.568V275.199H58.3977V273.812H63.5795C63.5758 273.419 63.4905 273.068 63.3239 272.761C63.1572 272.451 62.9242 272.206 62.625 272.028C62.3295 271.85 61.9848 271.761 61.5909 271.761C61.1705 271.761 60.8011 271.864 60.483 272.068C60.1648 272.269 59.9167 272.534 59.7386 272.864C59.5644 273.189 59.4754 273.547 59.4716 273.938V275.148C59.4716 275.655 59.5644 276.091 59.75 276.455C59.9356 276.814 60.1951 277.091 60.5284 277.284C60.8617 277.473 61.2519 277.568 61.6989 277.568C61.9981 277.568 62.2689 277.527 62.5114 277.443C62.7538 277.356 62.964 277.229 63.142 277.062C63.3201 276.896 63.4545 276.689 63.5455 276.443L65.4659 276.659C65.3447 277.167 65.1136 277.61 64.7727 277.989C64.4356 278.364 64.0038 278.655 63.4773 278.864C62.9508 279.068 62.3485 279.17 61.6705 279.17ZM74.1889 272.58L72.3139 272.784C72.2609 272.595 72.1681 272.417 72.0355 272.25C71.9067 272.083 71.7325 271.949 71.5128 271.847C71.2931 271.744 71.0241 271.693 70.706 271.693C70.2779 271.693 69.9181 271.786 69.6264 271.972C69.3385 272.157 69.1965 272.398 69.2003 272.693C69.1965 272.947 69.2893 273.153 69.4787 273.312C69.6719 273.472 69.9901 273.602 70.4332 273.705L71.9219 274.023C72.7476 274.201 73.3613 274.483 73.7628 274.869C74.1681 275.256 74.3726 275.761 74.3764 276.386C74.3726 276.936 74.2116 277.42 73.8935 277.841C73.5791 278.258 73.1416 278.583 72.581 278.818C72.0204 279.053 71.3764 279.17 70.6491 279.17C69.581 279.17 68.7211 278.947 68.0696 278.5C67.4181 278.049 67.0298 277.422 66.9048 276.619L68.9105 276.426C69.0014 276.82 69.1946 277.117 69.4901 277.318C69.7855 277.519 70.17 277.619 70.6435 277.619C71.1321 277.619 71.5241 277.519 71.8196 277.318C72.1188 277.117 72.2685 276.869 72.2685 276.574C72.2685 276.324 72.1719 276.117 71.9787 275.955C71.7893 275.792 71.4938 275.667 71.0923 275.58L69.6037 275.267C68.7666 275.093 68.1473 274.799 67.7457 274.386C67.3442 273.97 67.1454 273.443 67.1491 272.807C67.1454 272.269 67.2912 271.803 67.5866 271.409C67.8859 271.011 68.3007 270.705 68.831 270.489C69.3651 270.269 69.9806 270.159 70.6776 270.159C71.7003 270.159 72.5052 270.377 73.0923 270.812C73.6832 271.248 74.0488 271.837 74.1889 272.58ZM80.4304 270.273V271.864H75.4134V270.273H80.4304ZM76.652 268.182H78.7088V276.375C78.7088 276.652 78.7505 276.864 78.8338 277.011C78.9209 277.155 79.0346 277.254 79.1747 277.307C79.3149 277.36 79.4702 277.386 79.6406 277.386C79.7694 277.386 79.8868 277.377 79.9929 277.358C80.1027 277.339 80.1861 277.322 80.2429 277.307L80.5895 278.915C80.4796 278.953 80.3224 278.994 80.1179 279.04C79.9171 279.085 79.6709 279.112 79.3793 279.119C78.8641 279.134 78.4001 279.057 77.9872 278.886C77.5743 278.712 77.2467 278.443 77.0043 278.08C76.7656 277.716 76.6482 277.261 76.652 276.716V268.182ZM85.9205 279.17C85.0455 279.17 84.2898 278.989 83.6534 278.625C83.0208 278.258 82.5341 277.739 82.1932 277.068C81.8523 276.394 81.6818 275.6 81.6818 274.688C81.6818 273.79 81.8523 273.002 82.1932 272.324C82.5379 271.642 83.0189 271.112 83.6364 270.733C84.2538 270.35 84.9792 270.159 85.8125 270.159C86.3504 270.159 86.858 270.246 87.3352 270.42C87.8163 270.591 88.2405 270.856 88.608 271.216C88.9792 271.576 89.2708 272.034 89.483 272.591C89.6951 273.144 89.8011 273.803 89.8011 274.568V275.199H82.6477V273.812H87.8295C87.8258 273.419 87.7405 273.068 87.5739 272.761C87.4072 272.451 87.1742 272.206 86.875 272.028C86.5795 271.85 86.2348 271.761 85.8409 271.761C85.4205 271.761 85.0511 271.864 84.733 272.068C84.4148 272.269 84.1667 272.534 83.9886 272.864C83.8144 273.189 83.7254 273.547 83.7216 273.938V275.148C83.7216 275.655 83.8144 276.091 84 276.455C84.1856 276.814 84.4451 277.091 84.7784 277.284C85.1117 277.473 85.5019 277.568 85.9489 277.568C86.2481 277.568 86.5189 277.527 86.7614 277.443C87.0038 277.356 87.214 277.229 87.392 277.062C87.5701 276.896 87.7045 276.689 87.7955 276.443L89.7159 276.659C89.5947 277.167 89.3636 277.61 89.0227 277.989C88.6856 278.364 88.2538 278.655 87.7273 278.864C87.2008 279.068 86.5985 279.17 85.9205 279.17ZM94.7798 279.153C94.0942 279.153 93.4806 278.977 92.9389 278.625C92.3973 278.273 91.9692 277.761 91.6548 277.091C91.3404 276.42 91.1832 275.606 91.1832 274.648C91.1832 273.678 91.3423 272.86 91.6605 272.193C91.9825 271.523 92.4162 271.017 92.9616 270.676C93.5071 270.331 94.1151 270.159 94.7855 270.159C95.2969 270.159 95.7173 270.246 96.0469 270.42C96.3764 270.591 96.6378 270.797 96.831 271.04C97.0241 271.278 97.1738 271.504 97.2798 271.716H97.3651V267.364H99.4276V279H97.4048V277.625H97.2798C97.1738 277.837 97.0204 278.062 96.8196 278.301C96.6188 278.536 96.3537 278.737 96.0241 278.903C95.6946 279.07 95.2798 279.153 94.7798 279.153ZM95.3537 277.466C95.7893 277.466 96.1605 277.348 96.4673 277.114C96.7741 276.875 97.0071 276.544 97.1662 276.119C97.3253 275.695 97.4048 275.201 97.4048 274.636C97.4048 274.072 97.3253 273.581 97.1662 273.165C97.0109 272.748 96.7798 272.424 96.473 272.193C96.17 271.962 95.7969 271.847 95.3537 271.847C94.8954 271.847 94.5128 271.966 94.206 272.205C93.8991 272.443 93.6681 272.773 93.5128 273.193C93.3575 273.614 93.2798 274.095 93.2798 274.636C93.2798 275.182 93.3575 275.669 93.5128 276.097C93.6719 276.521 93.9048 276.856 94.2116 277.102C94.5223 277.345 94.9029 277.466 95.3537 277.466ZM105.679 279V267.364H110.134C110.974 267.364 111.673 267.496 112.23 267.761C112.791 268.023 113.209 268.381 113.486 268.835C113.766 269.29 113.906 269.805 113.906 270.381C113.906 270.854 113.815 271.259 113.634 271.597C113.452 271.93 113.207 272.201 112.901 272.409C112.594 272.617 112.251 272.767 111.872 272.858V272.972C112.285 272.994 112.681 273.121 113.06 273.352C113.442 273.58 113.755 273.902 113.997 274.318C114.24 274.735 114.361 275.239 114.361 275.83C114.361 276.432 114.215 276.973 113.923 277.455C113.632 277.932 113.192 278.309 112.605 278.585C112.018 278.862 111.279 279 110.389 279H105.679ZM107.787 277.239H110.054C110.819 277.239 111.37 277.093 111.707 276.801C112.048 276.506 112.219 276.127 112.219 275.665C112.219 275.32 112.134 275.009 111.963 274.733C111.793 274.453 111.55 274.233 111.236 274.074C110.921 273.911 110.546 273.83 110.111 273.83H107.787V277.239ZM107.787 272.312H109.872C110.236 272.312 110.563 272.246 110.855 272.114C111.147 271.977 111.376 271.786 111.543 271.54C111.713 271.29 111.798 270.994 111.798 270.653C111.798 270.203 111.639 269.831 111.321 269.54C111.007 269.248 110.539 269.102 109.918 269.102H107.787V272.312ZM121.666 275.33V270.273H123.723V279H121.729V277.449H121.638C121.441 277.937 121.117 278.337 120.666 278.648C120.219 278.958 119.668 279.114 119.013 279.114C118.441 279.114 117.935 278.987 117.496 278.733C117.06 278.475 116.719 278.102 116.473 277.614C116.227 277.121 116.104 276.527 116.104 275.83V270.273H118.161V275.511C118.161 276.064 118.312 276.504 118.615 276.83C118.918 277.155 119.316 277.318 119.808 277.318C120.111 277.318 120.405 277.244 120.689 277.097C120.973 276.949 121.206 276.729 121.388 276.438C121.573 276.142 121.666 275.773 121.666 275.33ZM125.929 279V267.364H127.986V271.716H128.071C128.177 271.504 128.327 271.278 128.52 271.04C128.713 270.797 128.974 270.591 129.304 270.42C129.634 270.246 130.054 270.159 130.565 270.159C131.24 270.159 131.848 270.331 132.389 270.676C132.935 271.017 133.366 271.523 133.685 272.193C134.007 272.86 134.168 273.678 134.168 274.648C134.168 275.606 134.01 276.42 133.696 277.091C133.382 277.761 132.954 278.273 132.412 278.625C131.87 278.977 131.257 279.153 130.571 279.153C130.071 279.153 129.656 279.07 129.327 278.903C128.997 278.737 128.732 278.536 128.531 278.301C128.334 278.062 128.181 277.837 128.071 277.625H127.952V279H125.929ZM127.946 274.636C127.946 275.201 128.026 275.695 128.185 276.119C128.348 276.544 128.58 276.875 128.884 277.114C129.19 277.348 129.562 277.466 129.997 277.466C130.452 277.466 130.832 277.345 131.139 277.102C131.446 276.856 131.677 276.521 131.832 276.097C131.991 275.669 132.071 275.182 132.071 274.636C132.071 274.095 131.993 273.614 131.838 273.193C131.683 272.773 131.452 272.443 131.145 272.205C130.838 271.966 130.455 271.847 129.997 271.847C129.558 271.847 129.185 271.962 128.878 272.193C128.571 272.424 128.338 272.748 128.179 273.165C128.024 273.581 127.946 274.072 127.946 274.636ZM137.973 267.364V279H135.916V267.364H137.973Z" fill="#2A2A2A"/>
<path d="M150.818 173.364V185H149.409V173.364H150.818ZM154.803 179.75V185H153.462V176.273H154.757V177.636H154.871C155.075 177.193 155.386 176.837 155.803 176.568C156.219 176.295 156.757 176.159 157.416 176.159C158.007 176.159 158.524 176.28 158.967 176.523C159.411 176.761 159.755 177.125 160.001 177.614C160.248 178.098 160.371 178.712 160.371 179.455V185H159.03V179.545C159.03 178.86 158.852 178.326 158.496 177.943C158.14 177.557 157.651 177.364 157.03 177.364C156.602 177.364 156.219 177.456 155.882 177.642C155.549 177.828 155.286 178.098 155.092 178.455C154.899 178.811 154.803 179.242 154.803 179.75ZM169.645 176.273L166.418 185H165.054L161.827 176.273H163.281L165.69 183.227H165.781L168.19 176.273H169.645ZM174.761 185.182C173.92 185.182 173.195 184.996 172.585 184.625C171.979 184.25 171.511 183.727 171.182 183.057C170.856 182.383 170.693 181.598 170.693 180.705C170.693 179.811 170.856 179.023 171.182 178.341C171.511 177.655 171.97 177.121 172.557 176.739C173.148 176.352 173.837 176.159 174.625 176.159C175.08 176.159 175.528 176.235 175.972 176.386C176.415 176.538 176.818 176.784 177.182 177.125C177.545 177.462 177.835 177.909 178.051 178.466C178.267 179.023 178.375 179.708 178.375 180.523V181.091H171.648V179.932H177.011C177.011 179.439 176.913 179 176.716 178.614C176.523 178.227 176.246 177.922 175.886 177.699C175.53 177.475 175.11 177.364 174.625 177.364C174.091 177.364 173.629 177.496 173.239 177.761C172.852 178.023 172.555 178.364 172.347 178.784C172.138 179.205 172.034 179.655 172.034 180.136V180.909C172.034 181.568 172.148 182.127 172.375 182.585C172.606 183.04 172.926 183.386 173.335 183.625C173.744 183.86 174.22 183.977 174.761 183.977C175.114 183.977 175.432 183.928 175.716 183.83C176.004 183.727 176.252 183.576 176.46 183.375C176.669 183.17 176.83 182.917 176.943 182.614L178.239 182.977C178.102 183.417 177.873 183.803 177.551 184.136C177.229 184.466 176.831 184.723 176.358 184.909C175.884 185.091 175.352 185.182 174.761 185.182ZM186.597 178.227L185.392 178.568C185.316 178.367 185.205 178.172 185.057 177.983C184.913 177.79 184.716 177.631 184.466 177.506C184.216 177.381 183.896 177.318 183.506 177.318C182.972 177.318 182.527 177.441 182.17 177.688C181.818 177.93 181.642 178.239 181.642 178.614C181.642 178.947 181.763 179.21 182.006 179.403C182.248 179.597 182.627 179.758 183.142 179.886L184.438 180.205C185.218 180.394 185.799 180.684 186.182 181.074C186.564 181.46 186.756 181.958 186.756 182.568C186.756 183.068 186.612 183.515 186.324 183.909C186.04 184.303 185.642 184.614 185.131 184.841C184.619 185.068 184.025 185.182 183.347 185.182C182.456 185.182 181.72 184.989 181.136 184.602C180.553 184.216 180.184 183.652 180.028 182.909L181.301 182.591C181.422 183.061 181.652 183.413 181.989 183.648C182.33 183.883 182.775 184 183.324 184C183.949 184 184.445 183.867 184.812 183.602C185.184 183.333 185.369 183.011 185.369 182.636C185.369 182.333 185.263 182.08 185.051 181.875C184.839 181.667 184.513 181.511 184.074 181.409L182.619 181.068C181.82 180.879 181.233 180.585 180.858 180.188C180.487 179.786 180.301 179.284 180.301 178.682C180.301 178.189 180.439 177.754 180.716 177.375C180.996 176.996 181.377 176.699 181.858 176.483C182.343 176.267 182.892 176.159 183.506 176.159C184.369 176.159 185.047 176.348 185.54 176.727C186.036 177.106 186.388 177.606 186.597 178.227ZM192.57 176.273V177.409H188.047V176.273H192.57ZM189.365 174.182H190.706V182.5C190.706 182.879 190.761 183.163 190.871 183.352C190.984 183.538 191.128 183.663 191.303 183.727C191.481 183.788 191.668 183.818 191.865 183.818C192.013 183.818 192.134 183.811 192.229 183.795C192.323 183.777 192.399 183.761 192.456 183.75L192.729 184.955C192.638 184.989 192.511 185.023 192.348 185.057C192.185 185.095 191.979 185.114 191.729 185.114C191.35 185.114 190.979 185.032 190.615 184.869C190.255 184.706 189.956 184.458 189.717 184.125C189.482 183.792 189.365 183.371 189.365 182.864V174.182ZM198.152 185.182C197.311 185.182 196.586 184.996 195.976 184.625C195.37 184.25 194.902 183.727 194.572 183.057C194.247 182.383 194.084 181.598 194.084 180.705C194.084 179.811 194.247 179.023 194.572 178.341C194.902 177.655 195.36 177.121 195.947 176.739C196.538 176.352 197.228 176.159 198.016 176.159C198.47 176.159 198.919 176.235 199.362 176.386C199.805 176.538 200.209 176.784 200.572 177.125C200.936 177.462 201.226 177.909 201.442 178.466C201.658 179.023 201.766 179.708 201.766 180.523V181.091H195.038V179.932H200.402C200.402 179.439 200.304 179 200.107 178.614C199.913 178.227 199.637 177.922 199.277 177.699C198.921 177.475 198.5 177.364 198.016 177.364C197.482 177.364 197.019 177.496 196.629 177.761C196.243 178.023 195.946 178.364 195.737 178.784C195.529 179.205 195.425 179.655 195.425 180.136V180.909C195.425 181.568 195.538 182.127 195.766 182.585C195.997 183.04 196.317 183.386 196.726 183.625C197.135 183.86 197.61 183.977 198.152 183.977C198.504 183.977 198.822 183.928 199.107 183.83C199.394 183.727 199.643 183.576 199.851 183.375C200.059 183.17 200.22 182.917 200.334 182.614L201.629 182.977C201.493 183.417 201.264 183.803 200.942 184.136C200.62 184.466 200.222 184.723 199.749 184.909C199.275 185.091 198.743 185.182 198.152 185.182ZM207.101 185.182C206.374 185.182 205.732 184.998 205.175 184.631C204.618 184.259 204.182 183.737 203.868 183.062C203.554 182.384 203.396 181.583 203.396 180.659C203.396 179.742 203.554 178.947 203.868 178.273C204.182 177.598 204.62 177.078 205.18 176.71C205.741 176.343 206.389 176.159 207.124 176.159C207.692 176.159 208.141 176.254 208.47 176.443C208.804 176.629 209.057 176.841 209.232 177.08C209.41 177.314 209.548 177.508 209.646 177.659H209.76V173.364H211.101V185H209.805V183.659H209.646C209.548 183.818 209.408 184.019 209.226 184.261C209.044 184.5 208.785 184.714 208.447 184.903C208.11 185.089 207.661 185.182 207.101 185.182ZM207.283 183.977C207.821 183.977 208.275 183.837 208.646 183.557C209.018 183.273 209.3 182.881 209.493 182.381C209.686 181.877 209.783 181.295 209.783 180.636C209.783 179.985 209.688 179.415 209.499 178.926C209.309 178.434 209.029 178.051 208.658 177.778C208.286 177.502 207.828 177.364 207.283 177.364C206.714 177.364 206.241 177.509 205.862 177.801C205.487 178.089 205.205 178.481 205.016 178.977C204.83 179.47 204.737 180.023 204.737 180.636C204.737 181.258 204.832 181.822 205.021 182.33C205.214 182.833 205.499 183.235 205.874 183.534C206.252 183.83 206.722 183.977 207.283 183.977Z" fill="#666666"/>
<path d="M157.23 203.003L156.795 204.486H148.511L148.946 203.003H157.23ZM153.344 213L148.665 207.273L148.639 206.199H150.966C151.571 206.199 152.087 206.114 152.513 205.943C152.939 205.768 153.265 205.509 153.491 205.163C153.717 204.814 153.83 204.375 153.83 203.847C153.83 203.067 153.595 202.455 153.126 202.012C152.658 201.565 151.938 201.341 150.966 201.341H148.511L148.946 199.909H150.966C152.006 199.909 152.858 200.082 153.523 200.427C154.192 200.768 154.686 201.237 155.006 201.833C155.33 202.425 155.491 203.097 155.491 203.847C155.491 204.524 155.342 205.148 155.044 205.719C154.75 206.286 154.277 206.742 153.625 207.087C152.977 207.433 152.121 207.605 151.055 207.605H151.017L155.338 212.898V213H153.344ZM157.23 199.909L156.795 201.392L150.276 201.341L150.71 199.909H157.23ZM159.076 213V211.849L163.397 207.119C163.904 206.565 164.322 206.084 164.65 205.675C164.978 205.261 165.221 204.874 165.378 204.511C165.54 204.145 165.621 203.761 165.621 203.361C165.621 202.901 165.51 202.502 165.289 202.165C165.072 201.829 164.773 201.569 164.394 201.386C164.015 201.202 163.589 201.111 163.116 201.111C162.613 201.111 162.174 201.215 161.799 201.424C161.428 201.629 161.14 201.916 160.936 202.287C160.736 202.658 160.635 203.092 160.635 203.591H159.127C159.127 202.824 159.304 202.151 159.657 201.571C160.011 200.991 160.493 200.54 161.102 200.216C161.716 199.892 162.404 199.73 163.167 199.73C163.934 199.73 164.613 199.892 165.206 200.216C165.798 200.54 166.263 200.977 166.599 201.526C166.936 202.076 167.104 202.688 167.104 203.361C167.104 203.842 167.017 204.313 166.842 204.773C166.672 205.229 166.373 205.739 165.947 206.301C165.525 206.859 164.939 207.541 164.189 208.347L161.249 211.491V211.594H167.334V213H159.076ZM169.386 210.315V209.011L175.139 199.909H176.085V201.929H175.446L171.099 208.807V208.909H178.846V210.315H169.386ZM175.548 213V209.919V209.312V199.909H177.057V213H175.548ZM182.674 209.42L182.648 207.554H182.955L187.25 203.182H189.117L184.54 207.81H184.412L182.674 209.42ZM181.267 213V199.909H182.776V213H181.267ZM187.506 213L183.671 208.142L184.745 207.094L189.424 213H187.506Z" fill="#2A2A2A"/>
<path d="M63.7727 177H62.3636C62.2803 176.595 62.1345 176.239 61.9261 175.932C61.7216 175.625 61.4716 175.367 61.1761 175.159C60.8845 174.947 60.5606 174.788 60.2045 174.682C59.8485 174.576 59.4773 174.523 59.0909 174.523C58.3864 174.523 57.7481 174.701 57.1761 175.057C56.608 175.413 56.1553 175.938 55.8182 176.631C55.4848 177.324 55.3182 178.174 55.3182 179.182C55.3182 180.189 55.4848 181.04 55.8182 181.733C56.1553 182.426 56.608 182.951 57.1761 183.307C57.7481 183.663 58.3864 183.841 59.0909 183.841C59.4773 183.841 59.8485 183.788 60.2045 183.682C60.5606 183.576 60.8845 183.419 61.1761 183.21C61.4716 182.998 61.7216 182.739 61.9261 182.432C62.1345 182.121 62.2803 181.765 62.3636 181.364H63.7727C63.6667 181.958 63.4735 182.491 63.1932 182.96C62.9129 183.43 62.5644 183.83 62.1477 184.159C61.7311 184.485 61.2633 184.733 60.7443 184.903C60.2292 185.074 59.678 185.159 59.0909 185.159C58.0985 185.159 57.2159 184.917 56.4432 184.432C55.6705 183.947 55.0625 183.258 54.6193 182.364C54.1761 181.47 53.9545 180.409 53.9545 179.182C53.9545 177.955 54.1761 176.894 54.6193 176C55.0625 175.106 55.6705 174.417 56.4432 173.932C57.2159 173.447 58.0985 173.205 59.0909 173.205C59.678 173.205 60.2292 173.29 60.7443 173.46C61.2633 173.631 61.7311 173.881 62.1477 174.21C62.5644 174.536 62.9129 174.934 63.1932 175.403C63.4735 175.869 63.6667 176.402 63.7727 177ZM71.3679 181.432V176.273H72.7088V185H71.3679V183.523H71.277C71.0724 183.966 70.7543 184.343 70.3224 184.653C69.8906 184.96 69.3452 185.114 68.6861 185.114C68.1406 185.114 67.6558 184.994 67.2315 184.756C66.8073 184.513 66.474 184.15 66.2315 183.665C65.9891 183.176 65.8679 182.561 65.8679 181.818V176.273H67.2088V181.727C67.2088 182.364 67.3868 182.871 67.7429 183.25C68.1027 183.629 68.5611 183.818 69.1179 183.818C69.4512 183.818 69.7902 183.733 70.1349 183.562C70.4834 183.392 70.7751 183.131 71.0099 182.778C71.2486 182.426 71.3679 181.977 71.3679 181.432ZM75.1648 185V176.273H76.4602V177.591H76.5511C76.7102 177.159 76.9981 176.809 77.4148 176.54C77.8314 176.271 78.3011 176.136 78.8239 176.136C78.9223 176.136 79.0455 176.138 79.1932 176.142C79.3409 176.146 79.4527 176.152 79.5284 176.159V177.523C79.483 177.511 79.3788 177.494 79.2159 177.472C79.0568 177.445 78.8883 177.432 78.7102 177.432C78.286 177.432 77.9072 177.521 77.5739 177.699C77.2443 177.873 76.983 178.116 76.7898 178.426C76.6004 178.733 76.5057 179.083 76.5057 179.477V185H75.1648ZM81.1179 185V176.273H82.4134V177.591H82.5043C82.6634 177.159 82.9512 176.809 83.3679 176.54C83.7846 176.271 84.2543 176.136 84.777 176.136C84.8755 176.136 84.9986 176.138 85.1463 176.142C85.294 176.146 85.4058 176.152 85.4815 176.159V177.523C85.4361 177.511 85.3319 177.494 85.169 177.472C85.0099 177.445 84.8414 177.432 84.6634 177.432C84.2391 177.432 83.8603 177.521 83.527 177.699C83.1974 177.873 82.9361 178.116 82.7429 178.426C82.5535 178.733 82.4588 179.083 82.4588 179.477V185H81.1179ZM90.4645 185.182C89.6236 185.182 88.8982 184.996 88.2884 184.625C87.6823 184.25 87.2145 183.727 86.8849 183.057C86.5592 182.383 86.3963 181.598 86.3963 180.705C86.3963 179.811 86.5592 179.023 86.8849 178.341C87.2145 177.655 87.6728 177.121 88.2599 176.739C88.8509 176.352 89.5402 176.159 90.3281 176.159C90.7827 176.159 91.2315 176.235 91.6747 176.386C92.1179 176.538 92.5213 176.784 92.8849 177.125C93.2486 177.462 93.5384 177.909 93.7543 178.466C93.9702 179.023 94.0781 179.708 94.0781 180.523V181.091H87.3509V179.932H92.7145C92.7145 179.439 92.616 179 92.419 178.614C92.2259 178.227 91.9493 177.922 91.5895 177.699C91.2334 177.475 90.813 177.364 90.3281 177.364C89.794 177.364 89.3319 177.496 88.9418 177.761C88.5554 178.023 88.258 178.364 88.0497 178.784C87.8414 179.205 87.7372 179.655 87.7372 180.136V180.909C87.7372 181.568 87.8509 182.127 88.0781 182.585C88.3092 183.04 88.6293 183.386 89.0384 183.625C89.4474 183.86 89.9228 183.977 90.4645 183.977C90.8168 183.977 91.1349 183.928 91.419 183.83C91.7069 183.727 91.955 183.576 92.1634 183.375C92.3717 183.17 92.5327 182.917 92.6463 182.614L93.9418 182.977C93.8054 183.417 93.5762 183.803 93.2543 184.136C92.9323 184.466 92.5346 184.723 92.0611 184.909C91.5876 185.091 91.0554 185.182 90.4645 185.182ZM97.4588 179.75V185H96.1179V176.273H97.4134V177.636H97.527C97.7315 177.193 98.0421 176.837 98.4588 176.568C98.8755 176.295 99.4134 176.159 100.072 176.159C100.663 176.159 101.18 176.28 101.624 176.523C102.067 176.761 102.411 177.125 102.658 177.614C102.904 178.098 103.027 178.712 103.027 179.455V185H101.686V179.545C101.686 178.86 101.508 178.326 101.152 177.943C100.796 177.557 100.307 177.364 99.6861 177.364C99.258 177.364 98.8755 177.456 98.5384 177.642C98.205 177.828 97.9418 178.098 97.7486 178.455C97.5554 178.811 97.4588 179.242 97.4588 179.75ZM109.273 176.273V177.409H104.75V176.273H109.273ZM106.068 174.182H107.409V182.5C107.409 182.879 107.464 183.163 107.574 183.352C107.688 183.538 107.831 183.663 108.006 183.727C108.184 183.788 108.371 183.818 108.568 183.818C108.716 183.818 108.837 183.811 108.932 183.795C109.027 183.777 109.102 183.761 109.159 183.75L109.432 184.955C109.341 184.989 109.214 185.023 109.051 185.057C108.888 185.095 108.682 185.114 108.432 185.114C108.053 185.114 107.682 185.032 107.318 184.869C106.958 184.706 106.659 184.458 106.42 184.125C106.186 183.792 106.068 183.371 106.068 182.864V174.182Z" fill="#666666"/>
<path d="M62.2301 203.003L61.7955 204.486H53.5114L53.946 203.003H62.2301ZM58.3438 213L53.6648 207.273L53.6392 206.199H55.9659C56.571 206.199 57.0866 206.114 57.5128 205.943C57.9389 205.768 58.2649 205.509 58.4908 205.163C58.7166 204.814 58.8295 204.375 58.8295 203.847C58.8295 203.067 58.5952 202.455 58.1264 202.012C57.6577 201.565 56.9375 201.341 55.9659 201.341H53.5114L53.946 199.909H55.9659C57.0057 199.909 57.858 200.082 58.5227 200.427C59.1918 200.768 59.6861 201.237 60.0057 201.833C60.3295 202.425 60.4915 203.097 60.4915 203.847C60.4915 204.524 60.3423 205.148 60.044 205.719C59.75 206.286 59.277 206.742 58.625 207.087C57.9773 207.433 57.1207 207.605 56.0554 207.605H56.017L60.3381 212.898V213H58.3438ZM62.2301 199.909L61.7955 201.392L55.2756 201.341L55.7102 199.909H62.2301ZM64.0758 213V211.849L68.3968 207.119C68.9039 206.565 69.3216 206.084 69.6497 205.675C69.9778 205.261 70.2207 204.874 70.3784 204.511C70.5403 204.145 70.6213 203.761 70.6213 203.361C70.6213 202.901 70.5105 202.502 70.2889 202.165C70.0716 201.829 69.7733 201.569 69.394 201.386C69.0147 201.202 68.5886 201.111 68.1156 201.111C67.6127 201.111 67.1738 201.215 66.7988 201.424C66.4281 201.629 66.1404 201.916 65.9359 202.287C65.7356 202.658 65.6355 203.092 65.6355 203.591H64.127C64.127 202.824 64.3038 202.151 64.6575 201.571C65.0112 200.991 65.4927 200.54 66.1021 200.216C66.7157 199.892 67.4039 199.73 68.1667 199.73C68.9338 199.73 69.6135 199.892 70.2058 200.216C70.7981 200.54 71.2626 200.977 71.5993 201.526C71.9359 202.076 72.1042 202.688 72.1042 203.361C72.1042 203.842 72.0169 204.313 71.8422 204.773C71.6717 205.229 71.3734 205.739 70.9473 206.301C70.5254 206.859 69.9395 207.541 69.1895 208.347L66.2491 211.491V211.594H72.3343V213H64.0758ZM75.3833 213L81.2385 201.418V201.315H74.4885V199.909H82.8748V201.392L77.0453 213H75.3833ZM86.6893 209.42L86.6637 207.554H86.9705L91.266 203.182H93.1325L88.5558 207.81H88.4279L86.6893 209.42ZM85.283 213V199.909H86.7915V213H85.283ZM91.5217 213L87.6864 208.142L88.7603 207.094L93.4393 213H91.5217Z" fill="#2A2A2A"/>
<path d="M251.409 185V173.364H255.341C256.25 173.364 256.996 173.519 257.58 173.83C258.163 174.136 258.595 174.559 258.875 175.097C259.155 175.634 259.295 176.246 259.295 176.932C259.295 177.617 259.155 178.225 258.875 178.756C258.595 179.286 258.165 179.703 257.585 180.006C257.006 180.305 256.265 180.455 255.364 180.455H252.182V179.182H255.318C255.939 179.182 256.439 179.091 256.818 178.909C257.201 178.727 257.477 178.47 257.648 178.136C257.822 177.799 257.909 177.398 257.909 176.932C257.909 176.466 257.822 176.059 257.648 175.71C257.473 175.362 257.195 175.093 256.812 174.903C256.43 174.71 255.924 174.614 255.295 174.614H252.818V185H251.409ZM256.886 179.773L259.75 185H258.114L255.295 179.773H256.886ZM265.027 185.182C264.186 185.182 263.461 184.996 262.851 184.625C262.245 184.25 261.777 183.727 261.447 183.057C261.122 182.383 260.959 181.598 260.959 180.705C260.959 179.811 261.122 179.023 261.447 178.341C261.777 177.655 262.235 177.121 262.822 176.739C263.413 176.352 264.103 176.159 264.891 176.159C265.345 176.159 265.794 176.235 266.237 176.386C266.68 176.538 267.084 176.784 267.447 177.125C267.811 177.462 268.101 177.909 268.317 178.466C268.533 179.023 268.641 179.708 268.641 180.523V181.091H261.913V179.932H267.277C267.277 179.439 267.179 179 266.982 178.614C266.788 178.227 266.512 177.922 266.152 177.699C265.796 177.475 265.375 177.364 264.891 177.364C264.357 177.364 263.894 177.496 263.504 177.761C263.118 178.023 262.821 178.364 262.612 178.784C262.404 179.205 262.3 179.655 262.3 180.136V180.909C262.3 181.568 262.413 182.127 262.641 182.585C262.872 183.04 263.192 183.386 263.601 183.625C264.01 183.86 264.485 183.977 265.027 183.977C265.379 183.977 265.697 183.928 265.982 183.83C266.269 183.727 266.518 183.576 266.726 183.375C266.934 183.17 267.095 182.917 267.209 182.614L268.504 182.977C268.368 183.417 268.139 183.803 267.817 184.136C267.495 184.466 267.097 184.723 266.624 184.909C266.15 185.091 265.618 185.182 265.027 185.182ZM274.476 176.273V177.409H269.953V176.273H274.476ZM271.271 174.182H272.612V182.5C272.612 182.879 272.667 183.163 272.777 183.352C272.891 183.538 273.035 183.663 273.209 183.727C273.387 183.788 273.574 183.818 273.771 183.818C273.919 183.818 274.04 183.811 274.135 183.795C274.23 183.777 274.305 183.761 274.362 183.75L274.635 184.955C274.544 184.989 274.417 185.023 274.254 185.057C274.091 185.095 273.885 185.114 273.635 185.114C273.256 185.114 272.885 185.032 272.521 184.869C272.161 184.706 271.862 184.458 271.624 184.125C271.389 183.792 271.271 183.371 271.271 182.864V174.182ZM281.993 181.432V176.273H283.334V185H281.993V183.523H281.902C281.697 183.966 281.379 184.343 280.947 184.653C280.516 184.96 279.97 185.114 279.311 185.114C278.766 185.114 278.281 184.994 277.857 184.756C277.432 184.513 277.099 184.15 276.857 183.665C276.614 183.176 276.493 182.561 276.493 181.818V176.273H277.834V181.727C277.834 182.364 278.012 182.871 278.368 183.25C278.728 183.629 279.186 183.818 279.743 183.818C280.076 183.818 280.415 183.733 280.76 183.562C281.108 183.392 281.4 183.131 281.635 182.778C281.874 182.426 281.993 181.977 281.993 181.432ZM285.79 185V176.273H287.085V177.591H287.176C287.335 177.159 287.623 176.809 288.04 176.54C288.456 176.271 288.926 176.136 289.449 176.136C289.547 176.136 289.67 176.138 289.818 176.142C289.966 176.146 290.078 176.152 290.153 176.159V177.523C290.108 177.511 290.004 177.494 289.841 177.472C289.682 177.445 289.513 177.432 289.335 177.432C288.911 177.432 288.532 177.521 288.199 177.699C287.869 177.873 287.608 178.116 287.415 178.426C287.225 178.733 287.131 179.083 287.131 179.477V185H285.79ZM293.084 179.75V185H291.743V176.273H293.038V177.636H293.152C293.357 177.193 293.667 176.837 294.084 176.568C294.5 176.295 295.038 176.159 295.697 176.159C296.288 176.159 296.805 176.28 297.249 176.523C297.692 176.761 298.036 177.125 298.283 177.614C298.529 178.098 298.652 178.712 298.652 179.455V185H297.311V179.545C297.311 178.86 297.133 178.326 296.777 177.943C296.421 177.557 295.932 177.364 295.311 177.364C294.883 177.364 294.5 177.456 294.163 177.642C293.83 177.828 293.567 178.098 293.374 178.455C293.18 178.811 293.084 179.242 293.084 179.75ZM307.284 178.227L306.08 178.568C306.004 178.367 305.892 178.172 305.744 177.983C305.6 177.79 305.403 177.631 305.153 177.506C304.903 177.381 304.583 177.318 304.193 177.318C303.659 177.318 303.214 177.441 302.858 177.688C302.506 177.93 302.33 178.239 302.33 178.614C302.33 178.947 302.451 179.21 302.693 179.403C302.936 179.597 303.314 179.758 303.83 179.886L305.125 180.205C305.905 180.394 306.487 180.684 306.869 181.074C307.252 181.46 307.443 181.958 307.443 182.568C307.443 183.068 307.299 183.515 307.011 183.909C306.727 184.303 306.33 184.614 305.818 184.841C305.307 185.068 304.712 185.182 304.034 185.182C303.144 185.182 302.407 184.989 301.824 184.602C301.241 184.216 300.871 183.652 300.716 182.909L301.989 182.591C302.11 183.061 302.339 183.413 302.676 183.648C303.017 183.883 303.462 184 304.011 184C304.636 184 305.133 183.867 305.5 183.602C305.871 183.333 306.057 183.011 306.057 182.636C306.057 182.333 305.951 182.08 305.739 181.875C305.527 181.667 305.201 181.511 304.761 181.409L303.307 181.068C302.508 180.879 301.92 180.585 301.545 180.188C301.174 179.786 300.989 179.284 300.989 178.682C300.989 178.189 301.127 177.754 301.403 177.375C301.684 176.996 302.064 176.699 302.545 176.483C303.03 176.267 303.58 176.159 304.193 176.159C305.057 176.159 305.735 176.348 306.227 176.727C306.723 177.106 307.076 177.606 307.284 178.227Z" fill="#666666"/>
<path d="M255.216 210.699V202.261H256.648V210.699H255.216ZM251.713 207.196V205.764H260.151V207.196H251.713ZM267.823 199.909V213H266.237V201.571H266.161L262.965 203.693V202.082L266.237 199.909H267.823ZM271.588 213V211.849L275.909 207.119C276.416 206.565 276.833 206.084 277.161 205.675C277.49 205.261 277.732 204.874 277.89 204.511C278.052 204.145 278.133 203.761 278.133 203.361C278.133 202.901 278.022 202.502 277.801 202.165C277.583 201.829 277.285 201.569 276.906 201.386C276.526 201.202 276.1 201.111 275.627 201.111C275.124 201.111 274.686 201.215 274.311 201.424C273.94 201.629 273.652 201.916 273.448 202.287C273.247 202.658 273.147 203.092 273.147 203.591H271.639C271.639 202.824 271.816 202.151 272.169 201.571C272.523 200.991 273.004 200.54 273.614 200.216C274.227 199.892 274.916 199.73 275.678 199.73C276.445 199.73 277.125 199.892 277.718 200.216C278.31 200.54 278.774 200.977 279.111 201.526C279.448 202.076 279.616 202.688 279.616 203.361C279.616 203.842 279.529 204.313 279.354 204.773C279.183 205.229 278.885 205.739 278.459 206.301C278.037 206.859 277.451 207.541 276.701 208.347L273.761 211.491V211.594H279.846V213H271.588ZM283.611 213.102C283.296 213.102 283.025 212.989 282.799 212.763C282.573 212.538 282.46 212.267 282.46 211.952C282.46 211.636 282.573 211.366 282.799 211.14C283.025 210.914 283.296 210.801 283.611 210.801C283.926 210.801 284.197 210.914 284.423 211.14C284.649 211.366 284.762 211.636 284.762 211.952C284.762 212.161 284.708 212.352 284.602 212.527C284.499 212.702 284.361 212.842 284.186 212.949C284.016 213.051 283.824 213.102 283.611 213.102ZM291.27 213.179C290.52 213.179 289.845 213.03 289.244 212.732C288.643 212.433 288.162 212.024 287.799 211.504C287.437 210.984 287.239 210.392 287.205 209.727H288.739C288.799 210.32 289.067 210.81 289.544 211.197C290.026 211.581 290.601 211.773 291.27 211.773C291.807 211.773 292.284 211.647 292.702 211.396C293.124 211.144 293.454 210.799 293.693 210.36C293.936 209.917 294.057 209.416 294.057 208.858C294.057 208.287 293.931 207.778 293.68 207.33C293.433 206.879 293.092 206.523 292.657 206.263C292.223 206.003 291.726 205.871 291.168 205.866C290.767 205.862 290.356 205.924 289.934 206.052C289.512 206.175 289.165 206.335 288.892 206.531L287.409 206.352L288.202 199.909H295.003V201.315H289.532L289.071 205.176H289.148C289.417 204.963 289.753 204.786 290.158 204.646C290.563 204.505 290.985 204.435 291.424 204.435C292.225 204.435 292.939 204.626 293.565 205.01C294.196 205.389 294.69 205.909 295.048 206.57C295.41 207.23 295.591 207.984 295.591 208.832C295.591 209.668 295.404 210.413 295.029 211.07C294.658 211.722 294.147 212.237 293.495 212.616C292.843 212.991 292.101 213.179 291.27 213.179ZM302.4 213.179C301.437 213.179 300.617 212.917 299.939 212.393C299.262 211.864 298.744 211.099 298.386 210.098C298.028 209.092 297.849 207.878 297.849 206.455C297.849 205.04 298.028 203.832 298.386 202.83C298.748 201.825 299.268 201.058 299.946 200.529C300.628 199.996 301.446 199.73 302.4 199.73C303.355 199.73 304.171 199.996 304.849 200.529C305.53 201.058 306.05 201.825 306.408 202.83C306.77 203.832 306.952 205.04 306.952 206.455C306.952 207.878 306.773 209.092 306.415 210.098C306.057 211.099 305.539 211.864 304.861 212.393C304.184 212.917 303.363 213.179 302.4 213.179ZM302.4 211.773C303.355 211.773 304.096 211.312 304.625 210.392C305.153 209.472 305.417 208.159 305.417 206.455C305.417 205.321 305.296 204.356 305.053 203.559C304.814 202.762 304.469 202.155 304.018 201.737C303.57 201.32 303.031 201.111 302.4 201.111C301.454 201.111 300.715 201.577 300.182 202.511C299.65 203.44 299.383 204.754 299.383 206.455C299.383 207.588 299.503 208.551 299.741 209.344C299.98 210.136 300.323 210.739 300.77 211.153C301.222 211.566 301.765 211.773 302.4 211.773ZM316.054 210.545V209.855C316.054 209.378 316.152 208.941 316.348 208.545C316.548 208.144 316.838 207.825 317.217 207.586C317.601 207.343 318.065 207.222 318.611 207.222C319.165 207.222 319.629 207.343 320.004 207.586C320.379 207.825 320.662 208.144 320.854 208.545C321.046 208.941 321.142 209.378 321.142 209.855V210.545C321.142 211.023 321.044 211.462 320.848 211.862C320.656 212.259 320.371 212.578 319.991 212.821C319.616 213.06 319.156 213.179 318.611 213.179C318.057 213.179 317.59 213.06 317.211 212.821C316.831 212.578 316.544 212.259 316.348 211.862C316.152 211.462 316.054 211.023 316.054 210.545ZM317.358 209.855V210.545C317.358 210.942 317.452 211.298 317.639 211.613C317.827 211.924 318.15 212.08 318.611 212.08C319.058 212.08 319.373 211.924 319.557 211.613C319.744 211.298 319.838 210.942 319.838 210.545V209.855C319.838 209.459 319.748 209.105 319.569 208.794C319.39 208.479 319.071 208.321 318.611 208.321C318.163 208.321 317.841 208.479 317.645 208.794C317.454 209.105 317.358 209.459 317.358 209.855ZM309.534 203.054V202.364C309.534 201.886 309.632 201.45 309.828 201.053C310.028 200.653 310.318 200.333 310.697 200.094C311.081 199.852 311.545 199.73 312.091 199.73C312.645 199.73 313.109 199.852 313.484 200.094C313.859 200.333 314.143 200.653 314.334 201.053C314.526 201.45 314.622 201.886 314.622 202.364V203.054C314.622 203.531 314.524 203.97 314.328 204.371C314.136 204.767 313.851 205.087 313.471 205.33C313.096 205.568 312.636 205.688 312.091 205.688C311.537 205.688 311.07 205.568 310.691 205.33C310.312 205.087 310.024 204.767 309.828 204.371C309.632 203.97 309.534 203.531 309.534 203.054ZM310.838 202.364V203.054C310.838 203.45 310.932 203.806 311.119 204.121C311.307 204.433 311.631 204.588 312.091 204.588C312.538 204.588 312.854 204.433 313.037 204.121C313.224 203.806 313.318 203.45 313.318 203.054V202.364C313.318 201.967 313.229 201.614 313.05 201.303C312.871 200.987 312.551 200.83 312.091 200.83C311.643 200.83 311.322 200.987 311.126 201.303C310.934 201.614 310.838 201.967 310.838 202.364ZM310.02 213L319.02 199.909H320.477L311.477 213H310.02Z" fill="#32CB5D"/>
</g>
<defs>
<filter id="filter0_d_47_844" x="-10" y="734" width="403" height="92" filterUnits="userSpaceOnUse" color-interpolation-filters="sRGB">
<feFlood flood-opacity="0" result="BackgroundImageFix"/>
<feColorMatrix in="SourceAlpha" type="matrix" values="0 0 0 0 0 0 0 0 0 0 0 0 0 0 0 0 0 0 127 0" result="hardAlpha"/>
<feMorphology radius="4" operator="dilate" in="SourceAlpha" result="effect1_dropShadow_47_844"/>
<feOffset dx="4"/>
<feGaussianBlur stdDeviation="5"/>
<feComposite in2="hardAlpha" operator="out"/>
<feColorMatrix type="matrix" values="0 0 0 0 0 0 0 0 0 0 0 0 0 0 0 0 0 0 0.05 0"/>
<feBlend mode="normal" in2="BackgroundImageFix" result="effect1_dropShadow_47_844"/>
<feBlend mode="normal" in="SourceGraphic" in2="effect1_dropShadow_47_844" result="shape"/>
</filter>
<clipPath id="clip0_47_844">
<rect width="375" height="812" rx="15" fill="white"/>
</clipPath>
</defs>
</svg>
