<svg width="115" height="115" viewBox="0 0 115 115" fill="none" xmlns="http://www.w3.org/2000/svg">
<path opacity="0.2" d="M57.5 115C89.2564 115 115 89.2564 115 57.5C115 25.7436 89.2564 0 57.5 0C25.7436 0 0 25.7436 0 57.5C0 89.2564 25.7436 115 57.5 115Z" fill="#F7931A"/>
<path fill-rule="evenodd" clip-rule="evenodd" d="M82.2681 47.8033C80.6084 46.4369 78.4474 45.7529 75.7854 45.7519C78.553 43.2573 79.2364 40.0241 77.837 36.0515C77.3404 34.6082 76.631 33.4269 75.7072 32.506C74.783 31.585 73.6832 30.9335 72.4045 30.5521C71.1264 30.1696 69.7901 29.969 68.398 29.9481C67.0055 29.9273 65.4433 30.0496 63.7124 30.3152L61.6058 21.8657L56.6591 23.0991L58.7072 31.3137C57.8506 31.5273 56.5499 31.8753 54.8051 32.3579L52.7402 24.0762L47.7929 25.3097L49.8996 33.7591C49.1982 33.9578 48.1625 34.2281 46.792 34.5698L39.9734 36.234L41.3444 41.7329L44.9099 40.8439C46.5376 40.4381 47.6802 40.9606 48.3374 42.411L50.7367 52.0341C50.9512 51.9806 51.1252 51.9495 51.2594 51.9397L50.7452 52.0679L54.1057 65.5461C54.2187 66.7285 53.7399 67.4538 52.669 67.7208L49.1037 68.6097L49.6376 74.994L56.0625 73.3921C56.4695 73.2907 57.0594 73.1495 57.8333 72.9673C58.6069 72.7864 59.1863 72.6479 59.5719 72.5518L61.7036 81.1016L66.6518 79.8679L64.5451 71.4186C65.4501 71.2173 66.7591 70.9025 68.4724 70.4754L70.5706 78.8908L75.5174 77.6575L73.3857 69.1076C75.1199 68.5804 76.6362 68.0253 77.934 67.4396C79.2325 66.8538 80.4379 66.1444 81.5487 65.3091C82.6595 64.4745 83.5349 63.5614 84.175 62.5708C84.8156 61.5808 85.2576 60.4136 85.5036 59.0699C85.7479 57.7267 85.748 56.2428 85.5016 54.6181C85.0068 51.4422 83.9283 49.1704 82.2681 47.8033ZM56.4059 38.3683L56.4062 38.3682L58.9726 48.6615C59.08 48.6348 59.4504 48.5487 60.0852 48.4021C60.72 48.2556 61.2178 48.1315 61.5792 48.0296C61.9403 47.9278 62.4702 47.7715 63.1689 47.5619C63.8674 47.3523 64.4408 47.1439 64.8897 46.9369C65.3383 46.7302 65.8591 46.4698 66.4515 46.1558C67.0441 45.842 67.5124 45.5055 67.8548 45.1473C68.1978 44.789 68.5194 44.388 68.8182 43.9454C69.1168 43.5029 69.2993 43.0003 69.3634 42.4383C69.4276 41.876 69.3817 41.2818 69.2256 40.6559C69.0417 39.9184 68.7448 39.298 68.3347 38.7949C67.9254 38.2914 67.4817 37.9032 67.004 37.6307C66.527 37.3579 65.9353 37.1729 65.2282 37.0764C64.5222 36.9793 63.8868 36.9418 63.3237 36.9637C62.7607 36.9856 62.0799 37.0602 61.2815 37.188C60.4828 37.3159 59.8547 37.4428 59.397 37.5687C58.9393 37.6947 58.3641 37.8499 57.6706 38.035C56.9779 38.2197 56.5565 38.3308 56.4062 38.3682L56.4062 38.3681L56.4058 38.3682L56.4059 38.3683ZM75.1552 59.3715C75.3814 58.9112 75.5318 58.3985 75.6075 57.8333C75.683 57.268 75.6427 56.6736 75.4866 56.047C75.2859 55.2421 74.947 54.5667 74.4691 54.0212C73.9919 53.4752 73.4679 53.0606 72.8962 52.7751C72.3246 52.4903 71.6236 52.303 70.7939 52.2133C69.9633 52.1232 69.211 52.0915 68.5352 52.1173C67.8588 52.1435 67.0413 52.2409 66.083 52.4091C65.1235 52.5767 64.3761 52.7279 63.8408 52.8614C63.3053 52.9949 62.6176 53.1775 61.777 53.411C60.9366 53.6448 60.4306 53.7825 60.2595 53.8252L63.0852 65.1585C63.2567 65.1158 63.6539 65.0227 64.2779 64.8782C64.9017 64.7343 65.4174 64.6122 65.8243 64.5108C66.2311 64.4093 66.7947 64.2507 67.5144 64.0364C68.2344 63.8209 68.8494 63.6203 69.3599 63.4335C69.8711 63.2463 70.4575 62.9998 71.121 62.6918C71.7828 62.3839 72.3385 62.08 72.7866 61.7776C73.2341 61.476 73.6848 61.1148 74.1366 60.6931C74.5887 60.2721 74.9282 59.831 75.1552 59.3715Z" fill="#F7931A"/>
<path fill-rule="evenodd" clip-rule="evenodd" d="M57.5 106.154C84.3708 106.154 106.154 84.3708 106.154 57.5C106.154 30.6292 84.3708 8.84615 57.5 8.84615C30.6293 8.84615 8.84619 30.6292 8.84619 57.5C8.84619 84.3708 30.6293 106.154 57.5 106.154Z" stroke="#F7931A" stroke-width="1.38125"/>
</svg>
